<svg width="710" height="710" viewBox="0 0 710 710" fill="none" xmlns="http://www.w3.org/2000/svg">
<line vector-effect="non-scaling-stroke" x1="445" y1="542" x2="266" y2="542" stroke="#111A5A" stroke-width="2"/>
<path vector-effect="non-scaling-stroke" d="M266 502H444V707H266V502ZM523 500H576.2V576.2H523V500ZM523 605.8H576.2V682H523V605.8ZM605.8 500H659V576.2H605.8V500ZM605.8 605.8H659V682H605.8V605.8Z" fill="#F8EEEA" stroke="#111A5A" stroke-width="2"/>
<circle vector-effect="non-scaling-stroke" cx="285" cy="521" r="7" fill="#EDBDC6" stroke="#111A5A" stroke-width="2"/>
<circle vector-effect="non-scaling-stroke" cx="309" cy="521" r="7" fill="#F1F387" stroke="#111A5A" stroke-width="2"/>
<circle vector-effect="non-scaling-stroke" cx="333" cy="521" r="7" fill="#BD87F3" stroke="#111A5A" stroke-width="2"/>
<rect vector-effect="non-scaling-stroke" x="532.2" y="509.2" width="34.8" height="34.8" fill="#EDBDC6" stroke="#111A5A" stroke-width="2"/>
<line vector-effect="non-scaling-stroke" x1="577.2" y1="552.9" x2="522" y2="552.9" stroke="#111A5A" stroke-width="2"/>
<line vector-effect="non-scaling-stroke" x1="553.05" y1="560.95" x2="531.2" y2="560.95" stroke="#111A5A" stroke-width="2"/>
<line vector-effect="non-scaling-stroke" x1="562.25" y1="567.85" x2="531.2" y2="567.85" stroke="#111A5A" stroke-width="2"/>
<rect vector-effect="non-scaling-stroke" x="283" y="578" width="46" height="11" stroke="#111A5A" stroke-width="2"/>
<rect vector-effect="non-scaling-stroke" x="288" y="288" width="134" height="134" stroke="#111A5A" stroke-width="2"/>
<path vector-effect="non-scaling-stroke" d="M177.5 135L197.589 62.8616C198.719 58.8059 202.413 56 206.623 56C211.802 56 216 60.1984 216 65.3773V73M40 127L75.565 61.4126C77.3736 58.0773 80.8631 56 84.6572 56C90.3693 56 95 60.6307 95 66.3429V73" stroke="#111A5A" stroke-width="2"/>
<circle vector-effect="non-scaling-stroke" cx="34" cy="408" r="12" fill="#F1F387" stroke="#111A5A" stroke-width="2"/>
<rect vector-effect="non-scaling-stroke" x="350" y="558" width="78" height="78" fill="#EDBDC6" stroke="#111A5A" stroke-width="2"/>
<line vector-effect="non-scaling-stroke" x1="577.2" y1="658.7" x2="522" y2="658.7" stroke="#111A5A" stroke-width="2"/>
<line vector-effect="non-scaling-stroke" x1="553.05" y1="666.75" x2="531.2" y2="666.75" stroke="#111A5A" stroke-width="2"/>
<line vector-effect="non-scaling-stroke" x1="562.25" y1="673.65" x2="531.2" y2="673.65" stroke="#111A5A" stroke-width="2"/>
<path vector-effect="non-scaling-stroke" d="M660 552.9L604.8 552.9M635.85 560.95H614M645.05 567.85H614" stroke="#111A5A" stroke-width="2"/>
<path vector-effect="non-scaling-stroke" d="M660 658.7H604.8M635.85 666.75H614M645.05 673.65H614M427.207 559.207L350.207 636.207M350.207 557.793L427.207 634.793" stroke="#111A5A" stroke-width="2"/>
<path vector-effect="non-scaling-stroke" d="M427.207 559.207L350.207 636.207M350.207 557.793L427.207 634.793" stroke="#111A5A" stroke-width="2"/>
<path vector-effect="non-scaling-stroke" d="M166 365H184C193.941 365 202 373.059 202 383C202 392.941 193.941 401 184 401H166V365Z" stroke="#111A5A" stroke-width="2"/>
<path vector-effect="non-scaling-stroke" d="M78.9552 594C78.4499 599.607 73.738 604 68 604C62.262 604 57.5501 599.607 57.0448 594H78.9552Z" fill="#EDBDC6" stroke="#111A5A" stroke-width="2"/>
<path vector-effect="non-scaling-stroke" d="M22.0121 614.001C22.5363 592.365 40.0238 575.001 61.5 575.001C64.0337 575.001 66.5615 575.246 69.048 575.733L69.24 574.751L70.0175 575.38C78.2092 565.253 89.3387 557.913 101.874 554.372C114.409 550.831 127.734 551.263 140.014 555.608C152.294 559.953 162.925 567.997 170.444 578.634C177.77 588.998 181.791 601.326 181.992 614.001H22.0121Z" fill="#F1F387" stroke="#111A5A" stroke-width="2"/>
<path vector-effect="non-scaling-stroke" d="M76.4798 564L88.5 585H65.1667L76.4798 564Z" fill="#F1F387"/>
<path vector-effect="non-scaling-stroke" d="M65.1667 585L76.4798 564L88.5 585" stroke="#111A5A" stroke-width="2"/>
<path vector-effect="non-scaling-stroke" d="M47.3131 564L59.3333 585H36L47.3131 564Z" fill="#F1F387"/>
<path vector-effect="non-scaling-stroke" d="M36 585L47.3131 564L59.3333 585" stroke="#111A5A" stroke-width="2"/>
<path vector-effect="non-scaling-stroke" d="M598 334V322H683V384H598V372.5V372.082L597.703 371.788L578.923 353.25L597.703 334.712L598 334.418V334Z" stroke="#111A5A" stroke-width="2"/>
<circle vector-effect="non-scaling-stroke" cx="622.778" cy="344.222" r="5.22222" stroke="#111A5A" stroke-width="2"/>
<circle vector-effect="non-scaling-stroke" cx="622.778" cy="356.667" r="6.77778" stroke="#111A5A" stroke-width="2"/>
<path vector-effect="non-scaling-stroke" d="M661.134 353.023L650.634 363.523M650.634 352.921L661.134 363.421" stroke="#111A5A" stroke-width="2"/>
<circle vector-effect="non-scaling-stroke" cx="641.444" cy="358.222" r="5.22222" stroke="#111A5A" stroke-width="2"/>
<line vector-effect="non-scaling-stroke" x1="636.222" y1="358.222" x2="636.222" y2="373" stroke="#111A5A" stroke-width="2"/>
<path vector-effect="non-scaling-stroke" d="M532.2 615H567V649.8H532.2V615ZM503 408H587V432H503V408Z" fill="#F1F387" stroke="#111A5A" stroke-width="2"/>
<path vector-effect="non-scaling-stroke" d="M623.237 185.107L535.284 97.1543L562.154 70.2843L650.091 158.221L638.859 162.693L638.406 162.874L638.269 163.341L636.024 171L628.723 172.908L628.242 173.034L628.052 173.492L623.237 185.107Z" fill="#F1F387" stroke="#111A5A" stroke-width="2"/>
<path vector-effect="non-scaling-stroke" d="M628.622 173.522L543.77 88.669M638.522 163.622L553.669 78.7695" stroke="#111A5A" stroke-width="2"/>
<path vector-effect="non-scaling-stroke" d="M525.113 158.237L613.066 70.2843L639.936 97.1543L552 185.091L547.527 173.859L547.347 173.406L546.879 173.269L539.22 171.024L537.312 163.723L537.187 163.242L536.728 163.052L525.113 158.237Z" fill="#F1F387" stroke="#111A5A" stroke-width="2"/>
<path vector-effect="non-scaling-stroke" d="M620.844 182.714L624.338 186.208L655.198 187.959L651.208 159.338L647.714 155.844M527.506 155.844L524.012 159.338L522.262 190.198L550.882 186.208L554.376 182.714" stroke="#111A5A" stroke-width="2"/>
<path vector-effect="non-scaling-stroke" d="M536.698 163.622L621.551 78.7695M546.598 173.522L631.451 88.669" stroke="#111A5A" stroke-width="2"/>
<path vector-effect="non-scaling-stroke" d="M335 600H282M319 607H282M330 614H282M110 708V621M181 614H192C205.255 614 216 603.255 216 590V544.563C216 538.729 211.271 534 205.437 534C199.603 534 194.874 538.729 194.874 544.563V575.008M16 519.255H46.8406M46.8406 519.255H47M46.8406 519.255L24.9203 541.175M46.8406 519.255L47 519.095M46.8406 519.255L47 519.414M46.8406 519.255L24.9203 497.335M47 519.255H80M47 519.255V519.414M47 519.255V519.095M47 552.255L47 519.414M47 519.414L70.1751 542.589M47 519.095V488.255M47 519.095L70.1751 495.92M547 388V324M91 299L98.5 303.333C101.835 305.26 101.835 310.073 98.5 312C95.1654 313.927 95.1654 318.74 98.5 320.667C101.835 322.593 101.835 327.407 98.5 329.333C95.1654 331.26 95.1654 336.073 98.5 338C101.835 339.927 101.835 344.74 98.5 346.667L91 351M111 299L118.5 303.333C121.835 305.26 121.835 310.073 118.5 312C115.165 313.927 115.165 318.74 118.5 320.667C121.835 322.593 121.835 327.407 118.5 329.333C115.165 331.26 115.165 336.073 118.5 338C121.835 339.927 121.835 344.74 118.5 346.667L111 351M131 299L138.5 303.333C141.835 305.26 141.835 310.073 138.5 312C135.165 313.927 135.165 318.74 138.5 320.667C141.835 322.593 141.835 327.407 138.5 329.333C135.165 331.26 135.165 336.073 138.5 338C141.835 339.927 141.835 344.74 138.5 346.667L131 351" stroke="#111A5A" stroke-width="2"/>
<rect vector-effect="non-scaling-stroke" x="316" y="52" width="78" height="136" stroke="#111A5A" stroke-width="2"/>
<path vector-effect="non-scaling-stroke" d="M328 156.75V150.25H329V148H332.417V147H341.25V148H350.083V147H358.917V148H367.75V147H376.583V148H380V150.25H381V156.75H380V163.25H381V169.75H380V172H376.583V173H367.75V172H358.917V173H350.083V172H341.25V173H332.417V172H329V169.75H328V163.25H329V156.75H328ZM328 78.5V69.5H329V66H332.417V65H341.25V66H350.083V65H358.917V66H367.75V65H376.583V66H380V69.5H381V78.5H380V87.5H381V96.5H380V105.5H381V114.5H380V118H376.583V119H367.75V118H358.917V119H350.083V118H341.25V119H332.417V118H329V114.5H328V105.5H329V96.5H328V87.5H329V78.5H328Z" fill="#F8EEEA" stroke="#111A5A" stroke-width="2" stroke-dasharray="8 8"/>
<rect vector-effect="non-scaling-stroke" x="259" y="78" width="73" height="51" fill="#EDBDC6" stroke="#111A5A" stroke-width="2"/>
<path vector-effect="non-scaling-stroke" d="M263 129L279 113L295 129M287 121L304 104L329 129" stroke="#111A5A" stroke-width="2"/>
<circle vector-effect="non-scaling-stroke" cx="283" cy="96" r="9" fill="#F1F387" stroke="#111A5A" stroke-width="2"/>
<path vector-effect="non-scaling-stroke" d="M406.542 28.3243L422.424 55.8323C423.689 58.0237 421.382 60.5415 419.089 59.4718L418.562 59.2261L413.305 56.7405C410.59 55.4569 407.357 56.7624 406.295 59.5713C405.36 62.0464 406.455 64.8277 408.827 66.0006L426.365 74.6726C430.248 76.5925 434.834 76.4448 438.585 74.2789L457.024 63.6337C461.438 61.0852 462.95 55.4408 460.402 51.0267L450.431 33.7571C449.536 32.2069 447.554 31.6757 446.004 32.5708L445.068 33.1109C444.034 33.7076 442.713 33.3535 442.116 32.3201C441.52 31.2866 440.198 30.9325 439.165 31.5292L434.486 34.2301C433.625 34.7273 432.524 34.4323 432.027 33.571C431.53 32.7098 430.428 32.4147 429.567 32.912L424.731 35.7043C424.129 36.0516 423.36 35.8455 423.013 35.244L415.899 22.9224C414.407 20.3387 411.103 19.4535 408.52 20.9452C405.936 22.4369 405.051 25.7406 406.542 28.3243Z" fill="#F1F387" stroke="#111A5A" stroke-width="2"/>
<path vector-effect="non-scaling-stroke" d="M428.855 49.125L436.057 61.6001M436.34 44.8035L443.542 57.2786M443.825 40.4819L451.027 52.9571" stroke="#111A5A" stroke-width="2"/>
<path vector-effect="non-scaling-stroke" d="M178 135.5C178 152.621 164.121 166.5 147 166.5C129.879 166.5 116 152.621 116 135.5C116 118.379 129.879 104.5 147 104.5C164.121 104.5 178 118.379 178 135.5ZM98 135.5C98 152.621 84.1208 166.5 67 166.5C49.8792 166.5 36 152.621 36 135.5C36 118.379 49.8792 104.5 67 104.5C84.1208 104.5 98 118.379 98 135.5Z" fill="#F1F387" stroke="#111A5A" stroke-width="2"/>
<path vector-effect="non-scaling-stroke" d="M72 351H166V426C166 451.957 144.957 473 119 473C93.0426 473 72 451.957 72 426V351ZM615 509.2H649.8V544H615V509.2ZM144 665H218V683H144V665ZM503 279H587V303H503V279ZM548.719 56.8493L562.154 70.2843L535.284 97.1544L521.849 83.7193C514.429 76.2994 514.429 64.2692 521.849 56.8493C529.269 49.4293 541.299 49.4293 548.719 56.8493ZM377 156H434V210H377V156Z" fill="#F3A787" stroke="#111A5A" stroke-width="2"/>
<path vector-effect="non-scaling-stroke" d="M160.707 118.707L137.707 141.707M162.707 131.707L149.707 144.707" stroke="#111A5A" stroke-width="2"/>
<path vector-effect="non-scaling-stroke" d="M116 135.5C116 130.529 111.971 126.5 107 126.5C102.029 126.5 98 130.529 98 135.5" stroke="#111A5A" stroke-width="2"/>
<path vector-effect="non-scaling-stroke" d="M79.7071 119.707L56.7071 142.707M81.7071 132.707L68.7071 145.707" stroke="#111A5A" stroke-width="2"/>
<path vector-effect="non-scaling-stroke" d="M384 185L391 165L398 185M427 168H403M428 193H383M395 177H387M414 201H383M417 176H403" stroke="#111A5A" stroke-width="2"/>
<path vector-effect="non-scaling-stroke" d="M31.6164 33.8705L31.6165 33.8705L31.6209 33.8598L35.8277 23.7631C35.9277 23.5372 36.0909 23.3449 36.2977 23.2094C36.5064 23.0728 36.7504 23 37 23C37.2496 23 37.4936 23.0728 37.7023 23.2094C37.9091 23.3449 38.0723 23.5372 38.1723 23.7631L42.3791 33.8598L42.379 33.8598L42.3836 33.8705C42.7209 34.6543 43.3459 35.279 44.1295 35.6162L44.1295 35.6163L44.1402 35.6207L54.2369 39.8277C54.4629 39.9277 54.6553 40.091 54.7907 40.2977C54.9272 40.5062 55 40.7502 55 41C55 41.2498 54.9272 41.4938 54.7907 41.7023C54.6553 41.909 54.4629 42.0723 54.2369 42.1723L44.1402 46.3793L44.1402 46.3792L44.1295 46.3838C43.3459 46.721 42.7209 47.3457 42.3836 48.1295L42.3835 48.1295L42.3791 48.1402L38.1723 58.2369C38.0724 58.4627 37.9091 58.6551 37.7023 58.7906C37.4936 58.9272 37.2496 59 37 59C36.7504 59 36.5064 58.9272 36.2977 58.7906C36.0909 58.6551 35.9276 58.4627 35.8277 58.2369L31.6209 48.1402L31.621 48.1402L31.6164 48.1295C31.2791 47.3457 30.6541 46.721 29.8705 46.3838L29.8705 46.3837L29.8598 46.3793L19.7631 42.1723C19.5371 42.0723 19.3447 41.909 19.2093 41.7023C19.0728 41.4938 19 41.2498 19 41C19 40.7502 19.0728 40.5062 19.2093 40.2977C19.3447 40.091 19.5371 39.9277 19.7631 39.8277L29.8598 35.6207L29.8598 35.6208L29.8705 35.6162C30.6541 35.279 31.2791 34.6543 31.6164 33.8705ZM532 509H567V544H532V509ZM281 281H295V295H281V281ZM281 414H295V428H281V414ZM415 281H429V295H415V281ZM415 414H429V428H415V414ZM292 659H339V689H292V659ZM20 679H74V707H20V679ZM653.371 83.7193L639.936 97.1544L613.066 70.2843L626.501 56.8493C633.921 49.4293 645.951 49.4293 653.371 56.8493C660.791 64.2692 660.791 76.2994 653.371 83.7193ZM182.414 327.157L198.157 311.414L213.9 327.157L198.157 342.9L182.414 327.157Z" fill="#EDBDC6" stroke="#111A5A" stroke-width="2"/>
<path vector-effect="non-scaling-stroke" d="M186.631 182.306L186.636 182.295L192.834 167.418C192.835 167.416 192.836 167.414 192.837 167.412C193.021 166.993 193.323 166.637 193.706 166.386C194.09 166.134 194.54 166 195 166C195.46 166 195.91 166.134 196.294 166.386C196.677 166.637 196.979 166.993 197.163 167.412C197.164 167.414 197.165 167.416 197.166 167.418L203.364 182.295L203.369 182.306C203.818 183.35 204.65 184.182 205.694 184.631L205.705 184.635L220.582 190.834C220.584 190.835 220.586 190.836 220.588 190.837C221.007 191.021 221.364 191.323 221.614 191.706C221.866 192.09 222 192.54 222 193C222 193.46 221.866 193.91 221.614 194.294C221.364 194.677 221.007 194.979 220.588 195.163C220.586 195.164 220.584 195.165 220.582 195.166L205.705 201.365L205.694 201.369C204.65 201.818 203.818 202.65 203.369 203.694L203.364 203.705L197.166 218.582C197.165 218.584 197.164 218.586 197.163 218.588C196.979 219.007 196.677 219.363 196.294 219.614C195.91 219.866 195.46 220 195 220C194.54 220 194.09 219.866 193.706 219.614C193.323 219.363 193.021 219.007 192.837 218.588C192.836 218.586 192.835 218.584 192.834 218.582L186.636 203.705L186.631 203.694C186.182 202.65 185.35 201.818 184.306 201.369L184.295 201.365L169.418 195.166C169.416 195.165 169.414 195.164 169.412 195.163C168.993 194.979 168.636 194.677 168.386 194.294C168.134 193.91 168 193.46 168 193C168 192.54 168.134 192.09 168.386 191.706C168.636 191.323 168.993 191.021 169.412 190.837C169.414 190.836 169.416 190.835 169.418 190.834L184.295 184.635L184.306 184.631C185.35 184.182 186.182 183.35 186.631 182.306ZM422 355C422 392.003 392.003 422 355 422C317.997 422 288 392.003 288 355C288 317.997 317.997 288 355 288C392.003 288 422 317.997 422 355ZM370 659H417V689H370V659ZM59 614H161V628H59V614ZM615 615H649.8V649.8H615V615ZM534.567 323.712L545.971 305.858L557.374 323.712H534.567ZM557.374 387.229L545.971 405.083L534.567 387.229H557.374ZM46.4521 278.612L60.9853 255.858L75.5184 278.612H46.4521Z" fill="#BD87F3" stroke="#111A5A" stroke-width="2"/>
<path vector-effect="non-scaling-stroke" d="M162.607 36.2468L162.611 36.2361L165.485 29.3369C165.486 29.3351 165.487 29.3333 165.488 29.3315C165.532 29.2338 165.603 29.1505 165.693 29.0917C165.784 29.0319 165.891 29 166 29C166.109 29 166.216 29.0319 166.307 29.0917C166.397 29.1505 166.468 29.2338 166.512 29.3315C166.513 29.3333 166.514 29.3351 166.515 29.3369L169.389 36.2361L169.393 36.2468C169.656 36.8573 170.143 37.3438 170.753 37.6065L170.764 37.611L177.663 40.4855C177.665 40.4863 177.667 40.4871 177.669 40.4879C177.766 40.5318 177.85 40.6029 177.908 40.6925C177.968 40.7836 178 40.8904 178 41C178 41.1096 177.968 41.2164 177.908 41.3075C177.85 41.3971 177.766 41.4682 177.669 41.5121C177.667 41.5129 177.665 41.5137 177.663 41.5145L170.764 44.389L170.753 44.3936C170.143 44.6562 169.656 45.1427 169.393 45.7532L169.389 45.7639L166.515 52.6631C166.514 52.6649 166.513 52.6667 166.512 52.6685C166.468 52.7662 166.397 52.8495 166.307 52.9083C166.216 52.9681 166.109 53 166 53C165.891 53 165.784 52.9681 165.693 52.9083C165.603 52.8495 165.532 52.7662 165.488 52.6685C165.487 52.6667 165.486 52.6649 165.485 52.6631L162.611 45.7639L162.607 45.7532C162.344 45.1427 161.857 44.6562 161.247 44.3936L161.247 44.3935L161.236 44.389L154.331 41.5121C154.234 41.4682 154.15 41.3971 154.092 41.3075C154.032 41.2164 154 41.1096 154 41C154 40.8904 154.032 40.7836 154.092 40.6925C154.15 40.6029 154.234 40.5318 154.331 40.4879L161.236 37.611L161.236 37.611L161.247 37.6064C161.857 37.3438 162.344 36.8573 162.607 36.2468ZM43.6066 201.247L43.6111 201.236L46.4855 194.337C46.4863 194.335 46.4871 194.333 46.4879 194.331C46.5317 194.234 46.6027 194.151 46.6925 194.092C46.7838 194.032 46.8907 194 47 194C47.1093 194 47.2162 194.032 47.3075 194.092C47.3973 194.151 47.4683 194.234 47.5121 194.331C47.5129 194.333 47.5137 194.335 47.5145 194.337L50.3889 201.236L50.3935 201.247C50.6562 201.857 51.143 202.344 51.7532 202.606L51.7639 202.611L58.6631 205.485C58.6649 205.486 58.6668 205.487 58.6686 205.488C58.7664 205.532 58.8497 205.603 58.9084 205.693C58.9681 205.784 59 205.89 59 206C59 206.11 58.9681 206.216 58.9084 206.307C58.8497 206.397 58.7664 206.468 58.6686 206.512C58.6668 206.513 58.6649 206.514 58.6631 206.515L51.7639 209.389L51.7532 209.394C51.143 209.656 50.6562 210.143 50.3934 210.753L50.3889 210.764L47.5145 217.663C47.5137 217.665 47.5129 217.667 47.5121 217.669C47.4683 217.766 47.3973 217.849 47.3075 217.908C47.2162 217.968 47.1093 218 47 218C46.8907 218 46.7838 217.968 46.6925 217.908C46.6027 217.849 46.5317 217.766 46.4879 217.669C46.4871 217.667 46.4863 217.665 46.4855 217.663L43.6111 210.764L43.6065 210.753C43.3438 210.143 42.857 209.656 42.2468 209.394L42.2361 209.389L35.3369 206.515C35.3351 206.514 35.3332 206.513 35.3314 206.512C35.2336 206.468 35.1503 206.397 35.0916 206.307C35.0319 206.216 35 206.11 35 206C35 205.89 35.0319 205.784 35.0916 205.693C35.1503 205.603 35.2336 205.532 35.3314 205.488C35.3332 205.487 35.3351 205.486 35.3369 205.485L42.2361 202.611L42.2468 202.606C42.857 202.344 43.3438 201.857 43.6066 201.247Z" stroke="#111A5A" stroke-width="2"/>
<path vector-effect="non-scaling-stroke" d="M237 0L237 710M473 0L473 710M710 237L1.03159e-05 237M710 473L0 473" stroke="#111A5A" stroke-width="2"/>
<path vector-effect="non-scaling-stroke" d="M708 708H1.99997L2 1.99994L708 2V708Z" stroke="#111A5A" stroke-width="2"/>
<path vector-effect="non-scaling-stroke" d="M449.674 325.31L456.654 337.394L451.453 340.396L444.404 328.287L443.589 326.886L442.703 328.244L438.605 334.524L436.193 308.069L457.885 323.415L450.487 323.811L448.859 323.899L449.674 325.31Z" fill="#F1F387" stroke="#111A5A" stroke-width="2"/>
</svg>
