<svg width="710" height="710" viewBox="0 0 710 710" fill="none" xmlns="http://www.w3.org/2000/svg">
<path vector-effect="non-scaling-stroke" d="M356 575C364.837 575 372 582.163 372 591M331.706 677.933C283.694 665.069 255.202 615.718 268.067 567.706C280.931 519.694 330.282 491.202 378.294 504.067M247 591C247 531.353 295.353 483 355 483C414.647 483 463 531.353 463 591M459.354 618.694C444.059 675.775 385.387 709.649 328.306 694.354M321 590.5C321 571.446 336.446 556 355.5 556C363.905 556 371.607 559.005 377.592 564M386.134 608.644L374.876 602.144" stroke="#111A5A" stroke-width="2"/>
<path vector-effect="non-scaling-stroke" d="M473 68H709M474 34H710M473 204H709M473 102H709M473 136H709M473 170H709" stroke="#111A5A" stroke-width="2"/>
<path vector-effect="non-scaling-stroke" d="M276.268 207.64L276.802 207L276.268 206.36L274.187 203.862L275.618 201H322V213H275.618L274.187 210.138L276.268 207.64ZM48.7797 506.6L40.0373 521.743L35.366 519.046L47.3054 498.366L67.9849 510.305L65.2879 514.977L50.1457 506.234L49.2797 505.734L48.7797 506.6ZM153.78 673.6L145.037 688.742L140.366 686.046L152.305 665.366L172.985 677.305L170.288 681.977L155.146 673.234L154.28 672.734L153.78 673.6ZM201.156 506.553L195.878 489.884L201.02 488.255L208.229 511.02L185.464 518.229L183.836 513.086L200.505 507.808L201.458 507.506L201.156 506.553ZM270 113H442V175H270V113ZM535 308H556V316H535V308ZM287 255C287 258.866 283.866 262 280 262C276.134 262 273 258.866 273 255C273 251.134 276.134 248 280 248C283.866 248 287 251.134 287 255ZM69 194C69 197.866 65.866 201 62 201C58.134 201 55 197.866 55 194C55 190.134 58.134 187 62 187C65.866 187 69 190.134 69 194ZM667 136C667 139.866 663.866 143 660 143C656.134 143 653 139.866 653 136C653 132.134 656.134 129 660 129C663.866 129 667 132.134 667 136ZM613.979 598C613.455 610.239 603.367 620 591 620C578.633 620 568.545 610.239 568.021 598H613.979ZM174 201C170.134 201 167 197.866 167 194C167 190.134 170.134 187 174 187C177.866 187 181 190.134 181 194C181 197.866 177.866 201 174 201ZM336 678C336 681.866 332.866 685 329 685C325.134 685 322 681.866 322 678C322 674.134 325.134 671 329 671C332.866 671 336 674.134 336 678Z" fill="#F1F387" stroke="#111A5A" stroke-width="2"/>
<path vector-effect="non-scaling-stroke" d="M366 328.5C366 334.851 360.851 340 354.5 340C348.149 340 343 334.851 343 328.5C343 322.149 348.149 317 354.5 317C360.851 317 366 322.149 366 328.5Z" fill="#F3A787" stroke="#111A5A" stroke-width="2"/>
<mask id="path-5-inside-1" fill="white">
<path vector-effect="non-scaling-stroke" d="M279 122H289V132H279V122Z"/>
<path vector-effect="non-scaling-stroke" d="M315 122H325V132H315V122Z"/>
<path vector-effect="non-scaling-stroke" d="M351 122H361V132H351V122Z"/>
<path vector-effect="non-scaling-stroke" d="M387 122H397V132H387V122Z"/>
<path vector-effect="non-scaling-stroke" d="M423 122H433V132H423V122Z"/>
<path vector-effect="non-scaling-stroke" d="M297 122H307V132H297V122Z"/>
<path vector-effect="non-scaling-stroke" d="M333 122H343V132H333V122Z"/>
<path vector-effect="non-scaling-stroke" d="M369 122H379V132H369V122Z"/>
<path vector-effect="non-scaling-stroke" d="M405 122H415V132H405V122Z"/>
<path vector-effect="non-scaling-stroke" d="M423 158H433V168H423V158Z"/>
<path vector-effect="non-scaling-stroke" d="M405 158H415V168H405V158Z"/>
<path vector-effect="non-scaling-stroke" d="M279 140H289V150H279V140Z"/>
<path vector-effect="non-scaling-stroke" d="M315 140H325V150H315V140Z"/>
<path vector-effect="non-scaling-stroke" d="M351 140H361V150H351V140Z"/>
<path vector-effect="non-scaling-stroke" d="M387 140H397V150H387V140Z"/>
<path vector-effect="non-scaling-stroke" d="M297 140H307V150H297V140Z"/>
<path vector-effect="non-scaling-stroke" d="M333 140H343V150H333V140Z"/>
<path vector-effect="non-scaling-stroke" d="M369 140H379V150H369V140Z"/>
<path vector-effect="non-scaling-stroke" d="M534 253H599V263H534V253Z"/>
<path vector-effect="non-scaling-stroke" d="M592 271H615V281H592V271Z"/>
<path vector-effect="non-scaling-stroke" d="M565 307H615V317H565V307Z"/>
<path vector-effect="non-scaling-stroke" d="M534 325H578V335H534V325Z"/>
<path vector-effect="non-scaling-stroke" d="M544 289H570V299H544V289Z"/>
<path vector-effect="non-scaling-stroke" d="M545 343H586V353H545V343Z"/>
<path vector-effect="non-scaling-stroke" d="M545 379H578V389H545V379Z"/>
<path vector-effect="non-scaling-stroke" d="M586 379H596V389H586V379Z"/>
</mask>
<path vector-effect="non-scaling-stroke" d="M279 122H289V132H279V122Z" fill="#F8EEEA"/>
<path vector-effect="non-scaling-stroke" d="M315 122H325V132H315V122Z" fill="#F8EEEA"/>
<path vector-effect="non-scaling-stroke" d="M351 122H361V132H351V122Z" fill="#F8EEEA"/>
<path vector-effect="non-scaling-stroke" d="M387 122H397V132H387V122Z" fill="#F8EEEA"/>
<path vector-effect="non-scaling-stroke" d="M423 122H433V132H423V122Z" fill="#F8EEEA"/>
<path vector-effect="non-scaling-stroke" d="M297 122H307V132H297V122Z" fill="#F8EEEA"/>
<path vector-effect="non-scaling-stroke" d="M333 122H343V132H333V122Z" fill="#F8EEEA"/>
<path vector-effect="non-scaling-stroke" d="M369 122H379V132H369V122Z" fill="#F8EEEA"/>
<path vector-effect="non-scaling-stroke" d="M405 122H415V132H405V122Z" fill="#F8EEEA"/>
<path vector-effect="non-scaling-stroke" d="M423 158H433V168H423V158Z" fill="#F8EEEA"/>
<path vector-effect="non-scaling-stroke" d="M405 158H415V168H405V158Z" fill="#F8EEEA"/>
<path vector-effect="non-scaling-stroke" d="M279 140H289V150H279V140Z" fill="#F8EEEA"/>
<path vector-effect="non-scaling-stroke" d="M315 140H325V150H315V140Z" fill="#F8EEEA"/>
<path vector-effect="non-scaling-stroke" d="M351 140H361V150H351V140Z" fill="#F8EEEA"/>
<path vector-effect="non-scaling-stroke" d="M387 140H397V150H387V140Z" fill="#F8EEEA"/>
<path vector-effect="non-scaling-stroke" d="M297 140H307V150H297V140Z" fill="#F8EEEA"/>
<path vector-effect="non-scaling-stroke" d="M333 140H343V150H333V140Z" fill="#F8EEEA"/>
<path vector-effect="non-scaling-stroke" d="M369 140H379V150H369V140Z" fill="#F8EEEA"/>
<path vector-effect="non-scaling-stroke" d="M534 253H599V263H534V253Z" fill="#F8EEEA"/>
<path vector-effect="non-scaling-stroke" d="M592 271H615V281H592V271Z" fill="#F8EEEA"/>
<path vector-effect="non-scaling-stroke" d="M565 307H615V317H565V307Z" fill="#F8EEEA"/>
<path vector-effect="non-scaling-stroke" d="M534 325H578V335H534V325Z" fill="#F8EEEA"/>
<path vector-effect="non-scaling-stroke" d="M544 289H570V299H544V289Z" fill="#F8EEEA"/>
<path vector-effect="non-scaling-stroke" d="M545 343H586V353H545V343Z" fill="#F8EEEA"/>
<path vector-effect="non-scaling-stroke" d="M545 379H578V389H545V379Z" fill="#F8EEEA"/>
<path vector-effect="non-scaling-stroke" d="M586 379H596V389H586V379Z" fill="#F8EEEA"/>
<path vector-effect="non-scaling-stroke" d="M279 122H289V132H279V122Z" stroke="#111A5A" stroke-width="4" mask="url(#path-5-inside-1)"/>
<path vector-effect="non-scaling-stroke" d="M315 122H325V132H315V122Z" stroke="#111A5A" stroke-width="4" mask="url(#path-5-inside-1)"/>
<path vector-effect="non-scaling-stroke" d="M351 122H361V132H351V122Z" stroke="#111A5A" stroke-width="4" mask="url(#path-5-inside-1)"/>
<path vector-effect="non-scaling-stroke" d="M387 122H397V132H387V122Z" stroke="#111A5A" stroke-width="4" mask="url(#path-5-inside-1)"/>
<path vector-effect="non-scaling-stroke" d="M423 122H433V132H423V122Z" stroke="#111A5A" stroke-width="4" mask="url(#path-5-inside-1)"/>
<path vector-effect="non-scaling-stroke" d="M297 122H307V132H297V122Z" stroke="#111A5A" stroke-width="4" mask="url(#path-5-inside-1)"/>
<path vector-effect="non-scaling-stroke" d="M333 122H343V132H333V122Z" stroke="#111A5A" stroke-width="4" mask="url(#path-5-inside-1)"/>
<path vector-effect="non-scaling-stroke" d="M369 122H379V132H369V122Z" stroke="#111A5A" stroke-width="4" mask="url(#path-5-inside-1)"/>
<path vector-effect="non-scaling-stroke" d="M405 122H415V132H405V122Z" stroke="#111A5A" stroke-width="4" mask="url(#path-5-inside-1)"/>
<path vector-effect="non-scaling-stroke" d="M423 158H433V168H423V158Z" stroke="#111A5A" stroke-width="4" mask="url(#path-5-inside-1)"/>
<path vector-effect="non-scaling-stroke" d="M405 158H415V168H405V158Z" stroke="#111A5A" stroke-width="4" mask="url(#path-5-inside-1)"/>
<path vector-effect="non-scaling-stroke" d="M279 140H289V150H279V140Z" stroke="#111A5A" stroke-width="4" mask="url(#path-5-inside-1)"/>
<path vector-effect="non-scaling-stroke" d="M315 140H325V150H315V140Z" stroke="#111A5A" stroke-width="4" mask="url(#path-5-inside-1)"/>
<path vector-effect="non-scaling-stroke" d="M351 140H361V150H351V140Z" stroke="#111A5A" stroke-width="4" mask="url(#path-5-inside-1)"/>
<path vector-effect="non-scaling-stroke" d="M387 140H397V150H387V140Z" stroke="#111A5A" stroke-width="4" mask="url(#path-5-inside-1)"/>
<path vector-effect="non-scaling-stroke" d="M297 140H307V150H297V140Z" stroke="#111A5A" stroke-width="4" mask="url(#path-5-inside-1)"/>
<path vector-effect="non-scaling-stroke" d="M333 140H343V150H333V140Z" stroke="#111A5A" stroke-width="4" mask="url(#path-5-inside-1)"/>
<path vector-effect="non-scaling-stroke" d="M369 140H379V150H369V140Z" stroke="#111A5A" stroke-width="4" mask="url(#path-5-inside-1)"/>
<path vector-effect="non-scaling-stroke" d="M534 253H599V263H534V253Z" stroke="#111A5A" stroke-width="4" mask="url(#path-5-inside-1)"/>
<path vector-effect="non-scaling-stroke" d="M592 271H615V281H592V271Z" stroke="#111A5A" stroke-width="4" mask="url(#path-5-inside-1)"/>
<path vector-effect="non-scaling-stroke" d="M565 307H615V317H565V307Z" stroke="#111A5A" stroke-width="4" mask="url(#path-5-inside-1)"/>
<path vector-effect="non-scaling-stroke" d="M534 325H578V335H534V325Z" stroke="#111A5A" stroke-width="4" mask="url(#path-5-inside-1)"/>
<path vector-effect="non-scaling-stroke" d="M544 289H570V299H544V289Z" stroke="#111A5A" stroke-width="4" mask="url(#path-5-inside-1)"/>
<path vector-effect="non-scaling-stroke" d="M545 343H586V353H545V343Z" stroke="#111A5A" stroke-width="4" mask="url(#path-5-inside-1)"/>
<path vector-effect="non-scaling-stroke" d="M545 379H578V389H545V379Z" stroke="#111A5A" stroke-width="4" mask="url(#path-5-inside-1)"/>
<path vector-effect="non-scaling-stroke" d="M586 379H596V389H586V379Z" stroke="#111A5A" stroke-width="4" mask="url(#path-5-inside-1)"/>
<path vector-effect="non-scaling-stroke" d="M35 148L35 124M72 151V137M18 205L18 191M173 139V125M201 188V166M118 124V165.212M118 165.212H62V188M118 165.212H174V188" stroke="#111A5A" stroke-width="2"/>
<path vector-effect="non-scaling-stroke" d="M353.5 113.5V99.1415C353.5 91.8837 359.384 86 366.642 86H386.75C392.963 86 398 80.9632 398 74.75C398 68.5368 392.963 63.5 386.75 63.5H308C300.544 63.5 294.5 57.4558 294.5 50C294.5 42.5442 300.544 36.5 308 36.5H360.352C367.061 36.5 372.5 31.0614 372.5 24.3525V1.5M474 1H710M237 273H473M543 447H537.5C526.454 447 518 438.046 518 427V237H658V405.5M43 370H1M187 283H0M237 432H77M77 432V380M77 432L77 473M237 360H197M189 237V330M275 201H273.059L264 207.5L273.059 213H275" stroke="#111A5A" stroke-width="2"/>
<path vector-effect="non-scaling-stroke" d="M518.627 536.535L505.899 523.807M525.58 529.534L523.036 520.104M511.534 543.58L502.104 541.036" stroke="#111A5A" stroke-width="2"/>
<path vector-effect="non-scaling-stroke" d="M664.807 645.899L677.535 658.627M657.854 652.9L660.398 662.331M671.9 638.854L681.331 641.398" stroke="#111A5A" stroke-width="2"/>
<path vector-effect="non-scaling-stroke" d="M287 316V292M281 337H257M300 370H276M340 299L316 299M399 313L375 313M430 297V273M424 355V331M455 376H431M431 443H407M323 432H299M261 456H237M252 406V382M366 455V431M308 473V449M279 439V415M451 431V407M464 321L440 321M331.5 353H311.5V333M328 375H310.5M311.5 417V397H331.5M378.5 397H398.5V417M382 375H399.5M398.5 333L398.5 353H378.5" stroke="#111A5A" stroke-width="2"/>
<path vector-effect="non-scaling-stroke" d="M559 580C559 575.582 562.582 572 567 572C571.418 572 575 575.582 575 580M607 580C607 575.582 610.582 572 615 572C619.418 572 623 575.582 623 580" stroke="#111A5A" stroke-width="2"/>
<path vector-effect="non-scaling-stroke" d="M587 326H624V334H587V326ZM406 141H432V149H406V141ZM432 200V210C432 217.18 426.18 223 419 223C411.82 223 406 217.18 406 210V200C406 192.82 411.82 187 419 187C426.18 187 432 192.82 432 200ZM519 205C519 208.866 515.866 212 512 212C508.134 212 505 208.866 505 205C505 201.134 508.134 198 512 198C515.866 198 519 201.134 519 205ZM263 255C263 258.866 259.866 262 256 262C252.134 262 249 258.866 249 255C249 251.134 252.134 248 256 248C259.866 248 263 251.134 263 255ZM558 34C558 37.866 554.866 41 551 41C547.134 41 544 37.866 544 34C544 30.134 547.134 27 551 27C554.866 27 558 30.134 558 34ZM196 282C196 285.866 192.866 289 189 289C185.134 289 182 285.866 182 282C182 278.134 185.134 275 189 275C192.866 275 196 278.134 196 282ZM92.2812 644.202L132.537 533.281L145.698 538.057L105.441 648.978L92.2812 644.202ZM394.892 605.33L410.481 614.33C413.829 616.263 414.976 620.544 413.043 623.892C411.11 627.24 406.829 628.388 403.481 626.455L387.892 617.455C384.544 615.522 383.397 611.24 385.33 607.892C387.263 604.544 391.544 603.397 394.892 605.33Z" fill="#EDBDC6" stroke="#111A5A" stroke-width="2"/>
<path vector-effect="non-scaling-stroke" d="M322 201H328C331.314 201 334 203.686 334 207C334 210.314 331.314 213 328 213H322V201ZM280 159H306V167H280V159ZM570 362H608V370H570V362ZM545 272H583V280H545V272ZM595 169C595 172.866 591.866 176 588 176C584.134 176 581 172.866 581 169C581 165.134 584.134 162 588 162C591.866 162 595 165.134 595 169ZM382 375C382 386.989 378.906 397.797 373.955 405.576C368.998 413.367 362.272 418 355 418C347.728 418 341.002 413.367 336.045 405.576C331.094 397.797 328 386.989 328 375C328 363.011 331.094 352.203 336.045 344.424C341.002 336.633 347.728 332 355 332C362.272 332 368.998 336.633 373.955 344.424C378.906 352.203 382 363.011 382 375ZM651 69C651 72.866 647.866 76 644 76C640.134 76 637 72.866 637 69C637 65.134 640.134 62 644 62C647.866 62 651 65.134 651 69ZM117.799 178.379L99.7489 165.799L117.799 153.219L135.849 165.799L117.799 178.379ZM84 431C84 434.866 80.866 438 77 438C73.134 438 70 434.866 70 431C70 427.134 73.134 424 77 424C80.866 424 84 427.134 84 431ZM390 489C390 492.866 386.866 496 383 496C379.134 496 376 492.866 376 489C376 485.134 379.134 482 383 482C386.866 482 390 485.134 390 489Z" fill="#F3A787" stroke="#111A5A" stroke-width="2"/>
<path vector-effect="non-scaling-stroke" d="M66.0914 379.019V380.019H67.0914H76.0556H77.0556V379.019V370.071H84.1795H85.1795V369.071V361.085V360.085H84.1795H77.0556V329.981V328.981H76.0556H59.948H59.377L59.0868 329.473L42.1388 358.195L42 358.43V358.703V369.071V370.071H43H66.0914V379.019ZM104.722 375.972L104.727 375.977C108.452 379.355 113.356 381 119.336 381C125.359 381 130.267 379.357 133.949 375.972L133.949 375.972C137.723 372.499 139.525 367.33 139.525 360.665V348.335C139.525 341.848 137.719 336.761 133.96 333.248C130.28 329.719 125.367 328 119.336 328C113.346 328 108.437 329.721 104.714 333.245C100.953 336.758 99.1465 341.847 99.1465 348.335V360.665C99.1465 367.33 100.948 372.499 104.722 375.972ZM126.288 368.482L126.288 368.482L126.279 368.492C124.9 370.107 122.664 371.014 119.336 371.014C116.103 371.014 113.856 370.143 112.402 368.568C110.933 366.979 110.111 364.499 110.111 360.945V347.915C110.111 344.63 110.951 342.219 112.501 340.543C114.093 338.872 116.326 337.986 119.336 337.986C122.252 337.986 124.447 338.849 126.043 340.486L126.052 340.496L126.061 340.504C127.672 342.075 128.56 344.484 128.56 347.915V360.945C128.56 364.347 127.755 366.81 126.288 368.482ZM177.912 379.019V380.019H178.912H187.876H188.876V379.019V370.071H196H197V369.071V361.085V360.085H196H188.876V329.981V328.981H187.876H171.769H171.197L170.907 329.473L153.959 358.195L153.821 358.43V358.703V369.071V370.071H154.821H177.912V379.019ZM424.198 608.064L424.183 608.055L424.167 608.047L411.179 600.873C411.716 597.639 412.234 594.326 412.234 591C412.234 587.942 411.716 584.644 411.179 581.416L424.167 574.243L424.183 574.234L424.198 574.225C425.988 573.152 427 571.066 427 569.031C427 568.351 426.761 567.39 426.416 566.33C426.058 565.232 425.546 563.91 424.919 562.456C423.663 559.547 421.927 556.062 419.99 552.705C418.057 549.355 415.904 546.098 413.811 543.664C412.765 542.449 411.71 541.41 410.68 540.667C409.668 539.936 408.573 539.414 407.47 539.414C406.448 539.414 405.353 539.737 404.551 540.474L391.668 547.864C386.671 543.555 381.167 540.517 375.175 538.272V523.359C375.175 520.608 373.137 518.14 370.599 517.751C365.617 516.584 360.632 516 355.645 516C350.356 516 345.358 516.587 340.361 517.761L340.338 517.766L340.315 517.773C337.879 518.468 336.115 520.58 336.115 523.359V538.261C329.858 540.509 324.336 543.549 319.332 547.864L306.449 540.474C305.647 539.737 304.552 539.414 303.53 539.414C302.489 539.414 301.444 539.933 300.482 540.634C299.497 541.352 298.469 542.357 297.439 543.537C295.375 545.898 293.205 549.07 291.235 552.367C289.262 555.669 287.469 559.129 286.166 562.083C285.515 563.56 284.98 564.923 284.607 566.085C284.242 567.219 284 568.252 284 569.031C284 571.066 285.012 573.152 286.802 574.225L286.817 574.234L286.833 574.243L299.824 581.418C299.312 584.668 299.055 587.706 299.055 591C299.055 594.291 299.312 597.582 299.825 600.871L286.833 608.047L286.817 608.055L286.802 608.064C285.038 609.121 284 611.191 284 612.969C284 613.678 284.235 614.665 284.582 615.758C284.939 616.885 285.452 618.231 286.079 619.706C287.335 622.657 289.072 626.171 291.009 629.546C292.943 632.915 295.095 636.181 297.189 638.62C298.234 639.837 299.289 640.878 300.319 641.621C301.332 642.353 302.427 642.875 303.53 642.875C304.552 642.875 305.647 642.552 306.449 641.815L319.352 634.414C324.328 638.468 329.837 641.755 336.115 644.027V658.93C336.115 661.709 337.879 663.821 340.315 664.516L340.365 664.531L340.416 664.54C345.373 665.413 350.356 666 355.355 666C360.021 666 365.32 665.71 370.35 664.528L370.363 664.525C372.995 663.868 375.175 661.823 375.175 658.93V644.016C381.187 641.746 386.678 638.463 391.648 634.414L404.551 641.815C405.353 642.552 406.448 642.875 407.47 642.875H407.495L407.52 642.874C408.543 642.823 409.572 642.282 410.53 641.563C411.51 640.826 412.535 639.811 413.564 638.623C415.625 636.246 417.794 633.075 419.765 629.778C421.738 626.476 423.531 623.015 424.835 620.041C425.486 618.555 426.021 617.177 426.395 615.994C426.761 614.835 427 613.779 427 612.969C427 611.191 425.962 609.121 424.198 608.064ZM66.0914 337.253V360.085H52.6336L66.0914 337.253ZM177.912 337.253V360.085H164.454L177.912 337.253ZM355.645 613.125C343.167 613.125 333.483 603.454 333.483 591C333.483 578.827 343.175 568.875 355.645 568.875C367.833 568.875 377.807 578.835 377.807 591C377.807 603.446 367.841 613.125 355.645 613.125Z" fill="#F1F387" stroke="#111A5A" stroke-width="2"/>
<path vector-effect="non-scaling-stroke" d="M321 590.5C321 571.446 336.446 556 355.5 556C363.905 556 371.607 559.005 377.592 564M386.134 608.644L374.876 602.144" stroke="#111A5A" stroke-width="2"/>
<path vector-effect="non-scaling-stroke" d="M387.892 617.455C384.544 615.522 383.397 611.24 385.33 607.892C387.263 604.544 391.544 603.397 394.892 605.33L410.481 614.33C413.829 616.263 414.976 620.544 413.043 623.892C411.11 627.24 406.829 628.388 403.481 626.455L387.892 617.455Z" fill="#EDBDC6" stroke="#111A5A" stroke-width="2"/>
<path vector-effect="non-scaling-stroke" d="M697.5 405.5H558.5V430C558.5 440.8 546.167 445.833 540 447H676.5C694.1 447 697.833 435.667 697.5 430V405.5Z" fill="#BD87F3" stroke="#111A5A" stroke-width="2"/>
<path vector-effect="non-scaling-stroke" d="M506 597.228V598.228H507H518.915C519.673 598.228 520.064 598.428 520.28 598.661C520.509 598.907 520.712 599.371 520.712 600.238V632.413C520.712 635.752 521.758 638.545 523.905 640.696C526.115 642.91 528.934 644 532.28 644H549.893H550.893V643V631.79V630.79H549.893H537.149C536.4 630.79 536.014 630.587 535.795 630.344C535.558 630.08 535.352 629.585 535.352 628.677V600.238C535.352 597.651 534.509 595.429 532.804 593.639C531.402 592.105 529.61 591.236 527.491 591C529.61 590.764 531.402 589.895 532.804 588.361C534.509 586.571 535.352 584.349 535.352 581.762V553.323C535.352 552.415 535.558 551.92 535.795 551.656C536.014 551.413 536.4 551.21 537.149 551.21H549.893H550.893V550.21V539V538H549.893H532.28C528.934 538 526.115 539.09 523.905 541.304C521.758 543.455 520.712 546.248 520.712 549.587V581.762C520.712 582.629 520.509 583.093 520.28 583.339C520.064 583.572 519.673 583.772 518.915 583.772H507H506V584.772V597.228ZM631.107 643V644H632.107H649.72C653.059 644 655.848 642.914 657.992 640.696C660.205 638.549 661.288 635.757 661.288 632.413V600.238C661.288 599.371 661.491 598.907 661.72 598.661C661.936 598.428 662.327 598.228 663.085 598.228H675H676V597.228V584.772V583.772H675H663.085C662.327 583.772 661.936 583.572 661.72 583.339C661.491 583.093 661.288 582.629 661.288 581.762V549.587C661.288 546.243 660.205 543.451 657.992 541.304C655.848 539.086 653.059 538 649.72 538H632.107H631.107V539V550.21V551.21H632.107H644.851C645.6 551.21 645.986 551.413 646.205 551.656C646.442 551.92 646.648 552.415 646.648 553.323V581.762C646.648 584.339 647.45 586.559 649.085 588.352L649.093 588.361L649.101 588.369C650.557 589.894 652.377 590.764 654.506 591C652.377 591.236 650.557 592.106 649.101 593.631L649.093 593.639L649.085 593.648C647.45 595.441 646.648 597.661 646.648 600.238V628.677C646.648 629.585 646.442 630.08 646.205 630.344C645.986 630.587 645.6 630.79 644.851 630.79H632.107H631.107V631.79V643Z" fill="#BD87F3" stroke="#111A5A" stroke-width="2"/>
<path vector-effect="non-scaling-stroke" d="M90.0091 85.3065L90.7515 85.6627L91.2435 85.0025C103.459 68.6119 122.99 58 145 58C181.669 58 211.458 87.458 211.993 124H27.0111C27.5427 100.161 47.0337 81 71 81C77.8102 81 84.2565 82.5465 90.0091 85.3065ZM57.9203 591.305L85.4975 618.882L75.598 628.782L37.4142 590.598L75.598 552.414L85.4975 562.314L57.9203 589.891L57.2132 590.598L57.9203 591.305ZM180.276 589.891L152.698 562.314L162.598 552.414L200.782 590.598L162.598 628.782L152.698 618.882L180.276 591.305L180.983 590.598L180.276 589.891ZM316 159H396V167H316V159ZM546 362H560V370H546V362ZM579 290H632V298H579V290ZM311 255C311 258.866 307.866 262 304 262C300.134 262 297 258.866 297 255C297 251.134 300.134 248 304 248C307.866 248 311 251.134 311 255ZM527 103C527 106.866 523.866 110 520 110C516.134 110 513 106.866 513 103C513 99.134 516.134 96 520 96C523.866 96 527 99.134 527 103ZM256 591C256 594.866 252.866 598 249 598C245.134 598 242 594.866 242 591C242 587.134 245.134 584 249 584C252.866 584 256 587.134 256 591Z" fill="#BD87F3" stroke="#111A5A" stroke-width="2"/>
<path vector-effect="non-scaling-stroke" d="M54 68.4737L73.7746 39V60.1228H90L61.0986 95L68.7042 68.4737H54Z" fill="#F1F387"/>
<path vector-effect="non-scaling-stroke" d="M188 44.4211L201.183 26V39.2018H212L192.732 61L197.803 44.4211H188Z" fill="#F1F387"/>
<path vector-effect="non-scaling-stroke" d="M54 68.4737L73.7746 39V60.1228H90L61.0986 95L68.7042 68.4737H54Z" stroke="#111A5A" stroke-width="2"/>
<path vector-effect="non-scaling-stroke" d="M188 44.4211L201.183 26V39.2018H212L192.732 61L197.803 44.4211H188Z" stroke="#111A5A" stroke-width="2"/>
<path vector-effect="non-scaling-stroke" d="M237 0L237 710M473 0L473 710M710 237L1.03159e-05 237M710 473L0 473" stroke="#111A5A" stroke-width="2"/>
<line x1="1.5" y1="6.5567e-08" x2="1.49997" y2="710" stroke="#111A5A" stroke-width="3"/>
<line x1="708.5" y1="6.5567e-08" x2="708.5" y2="710" stroke="#111A5A" stroke-width="3"/>
<line x1="710" y1="1.5" x2="-1.31134e-07" y2="1.49994" stroke="#111A5A" stroke-width="3"/>
<line x1="710" y1="708.5" x2="-1.31134e-07" y2="708.5" stroke="#111A5A" stroke-width="3"/>
</svg>
