<svg width="711" height="710" viewBox="0 0 711 710" fill="none" xmlns="http://www.w3.org/2000/svg">
<path vector-effect="non-scaling-stroke" d="M357 575C365.837 575 373 582.163 373 591M332.706 677.933C284.694 665.069 256.202 615.718 269.067 567.706C281.931 519.694 331.282 491.202 379.294 504.067M248 591C248 531.353 296.353 483 356 483C415.647 483 464 531.353 464 591M460.354 618.694C445.059 675.775 386.387 709.649 329.306 694.354M322 590.5C322 571.446 337.446 556 356.5 556C364.905 556 372.607 559.005 378.592 564M387.134 608.644L375.876 602.144" stroke="#111A5A" stroke-width="2"/>
<path vector-effect="non-scaling-stroke" d="M474 68H710M475 34H711M474 204H710M474 102H710M474 136H710M474 170H710" stroke="#111A5A" stroke-width="2"/>
<path vector-effect="non-scaling-stroke" d="M277.268 207.64L277.802 207L277.268 206.36L275.187 203.862L276.618 201H323V213H276.618L275.187 210.138L277.268 207.64ZM49.7797 506.6L41.0373 521.743L36.366 519.046L48.3054 498.366L68.9849 510.305L66.2879 514.977L51.1457 506.234L50.2797 505.734L49.7797 506.6ZM154.78 673.6L146.037 688.742L141.366 686.046L153.305 665.366L173.985 677.305L171.288 681.977L156.146 673.234L155.28 672.734L154.78 673.6ZM202.156 506.553L196.878 489.884L202.02 488.255L209.229 511.02L186.464 518.229L184.836 513.086L201.505 507.808L202.458 507.506L202.156 506.553ZM271 113H443V175H271V113ZM536 308H557V316H536V308ZM288 255C288 258.866 284.866 262 281 262C277.134 262 274 258.866 274 255C274 251.134 277.134 248 281 248C284.866 248 288 251.134 288 255ZM70 194C70 197.866 66.866 201 63 201C59.134 201 56 197.866 56 194C56 190.134 59.134 187 63 187C66.866 187 70 190.134 70 194ZM668 136C668 139.866 664.866 143 661 143C657.134 143 654 139.866 654 136C654 132.134 657.134 129 661 129C664.866 129 668 132.134 668 136ZM614.979 598C614.455 610.239 604.367 620 592 620C579.633 620 569.545 610.239 569.021 598H614.979ZM175 201C171.134 201 168 197.866 168 194C168 190.134 171.134 187 175 187C178.866 187 182 190.134 182 194C182 197.866 178.866 201 175 201ZM337 678C337 681.866 333.866 685 330 685C326.134 685 323 681.866 323 678C323 674.134 326.134 671 330 671C333.866 671 337 674.134 337 678Z" fill="#F1F387" stroke="#111A5A" stroke-width="2"/>
<path vector-effect="non-scaling-stroke" d="M367 328.5C367 334.851 361.851 340 355.5 340C349.149 340 344 334.851 344 328.5C344 322.149 349.149 317 355.5 317C361.851 317 367 322.149 367 328.5Z" fill="#F3A787" stroke="#111A5A" stroke-width="2"/>
<mask id="path-5-inside-1" fill="white">
<path vector-effect="non-scaling-stroke" d="M280 122H290V132H280V122Z"/>
<path vector-effect="non-scaling-stroke" d="M316 122H326V132H316V122Z"/>
<path vector-effect="non-scaling-stroke" d="M352 122H362V132H352V122Z"/>
<path vector-effect="non-scaling-stroke" d="M388 122H398V132H388V122Z"/>
<path vector-effect="non-scaling-stroke" d="M424 122H434V132H424V122Z"/>
<path vector-effect="non-scaling-stroke" d="M298 122H308V132H298V122Z"/>
<path vector-effect="non-scaling-stroke" d="M334 122H344V132H334V122Z"/>
<path vector-effect="non-scaling-stroke" d="M370 122H380V132H370V122Z"/>
<path vector-effect="non-scaling-stroke" d="M406 122H416V132H406V122Z"/>
<path vector-effect="non-scaling-stroke" d="M424 158H434V168H424V158Z"/>
<path vector-effect="non-scaling-stroke" d="M406 158H416V168H406V158Z"/>
<path vector-effect="non-scaling-stroke" d="M280 140H290V150H280V140Z"/>
<path vector-effect="non-scaling-stroke" d="M316 140H326V150H316V140Z"/>
<path vector-effect="non-scaling-stroke" d="M352 140H362V150H352V140Z"/>
<path vector-effect="non-scaling-stroke" d="M388 140H398V150H388V140Z"/>
<path vector-effect="non-scaling-stroke" d="M298 140H308V150H298V140Z"/>
<path vector-effect="non-scaling-stroke" d="M334 140H344V150H334V140Z"/>
<path vector-effect="non-scaling-stroke" d="M370 140H380V150H370V140Z"/>
<path vector-effect="non-scaling-stroke" d="M535 253H600V263H535V253Z"/>
<path vector-effect="non-scaling-stroke" d="M593 271H616V281H593V271Z"/>
<path vector-effect="non-scaling-stroke" d="M566 307H616V317H566V307Z"/>
<path vector-effect="non-scaling-stroke" d="M535 325H579V335H535V325Z"/>
<path vector-effect="non-scaling-stroke" d="M545 289H571V299H545V289Z"/>
<path vector-effect="non-scaling-stroke" d="M546 343H587V353H546V343Z"/>
<path vector-effect="non-scaling-stroke" d="M546 379H579V389H546V379Z"/>
<path vector-effect="non-scaling-stroke" d="M587 379H597V389H587V379Z"/>
</mask>
<path vector-effect="non-scaling-stroke" d="M280 122H290V132H280V122Z" fill="#F8EEEA"/>
<path vector-effect="non-scaling-stroke" d="M316 122H326V132H316V122Z" fill="#F8EEEA"/>
<path vector-effect="non-scaling-stroke" d="M352 122H362V132H352V122Z" fill="#F8EEEA"/>
<path vector-effect="non-scaling-stroke" d="M388 122H398V132H388V122Z" fill="#F8EEEA"/>
<path vector-effect="non-scaling-stroke" d="M424 122H434V132H424V122Z" fill="#F8EEEA"/>
<path vector-effect="non-scaling-stroke" d="M298 122H308V132H298V122Z" fill="#F8EEEA"/>
<path vector-effect="non-scaling-stroke" d="M334 122H344V132H334V122Z" fill="#F8EEEA"/>
<path vector-effect="non-scaling-stroke" d="M370 122H380V132H370V122Z" fill="#F8EEEA"/>
<path vector-effect="non-scaling-stroke" d="M406 122H416V132H406V122Z" fill="#F8EEEA"/>
<path vector-effect="non-scaling-stroke" d="M424 158H434V168H424V158Z" fill="#F8EEEA"/>
<path vector-effect="non-scaling-stroke" d="M406 158H416V168H406V158Z" fill="#F8EEEA"/>
<path vector-effect="non-scaling-stroke" d="M280 140H290V150H280V140Z" fill="#F8EEEA"/>
<path vector-effect="non-scaling-stroke" d="M316 140H326V150H316V140Z" fill="#F8EEEA"/>
<path vector-effect="non-scaling-stroke" d="M352 140H362V150H352V140Z" fill="#F8EEEA"/>
<path vector-effect="non-scaling-stroke" d="M388 140H398V150H388V140Z" fill="#F8EEEA"/>
<path vector-effect="non-scaling-stroke" d="M298 140H308V150H298V140Z" fill="#F8EEEA"/>
<path vector-effect="non-scaling-stroke" d="M334 140H344V150H334V140Z" fill="#F8EEEA"/>
<path vector-effect="non-scaling-stroke" d="M370 140H380V150H370V140Z" fill="#F8EEEA"/>
<path vector-effect="non-scaling-stroke" d="M535 253H600V263H535V253Z" fill="#F8EEEA"/>
<path vector-effect="non-scaling-stroke" d="M593 271H616V281H593V271Z" fill="#F8EEEA"/>
<path vector-effect="non-scaling-stroke" d="M566 307H616V317H566V307Z" fill="#F8EEEA"/>
<path vector-effect="non-scaling-stroke" d="M535 325H579V335H535V325Z" fill="#F8EEEA"/>
<path vector-effect="non-scaling-stroke" d="M545 289H571V299H545V289Z" fill="#F8EEEA"/>
<path vector-effect="non-scaling-stroke" d="M546 343H587V353H546V343Z" fill="#F8EEEA"/>
<path vector-effect="non-scaling-stroke" d="M546 379H579V389H546V379Z" fill="#F8EEEA"/>
<path vector-effect="non-scaling-stroke" d="M587 379H597V389H587V379Z" fill="#F8EEEA"/>
<path vector-effect="non-scaling-stroke" d="M280 122H290V132H280V122Z" stroke="#111A5A" stroke-width="4" mask="url(#path-5-inside-1)"/>
<path vector-effect="non-scaling-stroke" d="M316 122H326V132H316V122Z" stroke="#111A5A" stroke-width="4" mask="url(#path-5-inside-1)"/>
<path vector-effect="non-scaling-stroke" d="M352 122H362V132H352V122Z" stroke="#111A5A" stroke-width="4" mask="url(#path-5-inside-1)"/>
<path vector-effect="non-scaling-stroke" d="M388 122H398V132H388V122Z" stroke="#111A5A" stroke-width="4" mask="url(#path-5-inside-1)"/>
<path vector-effect="non-scaling-stroke" d="M424 122H434V132H424V122Z" stroke="#111A5A" stroke-width="4" mask="url(#path-5-inside-1)"/>
<path vector-effect="non-scaling-stroke" d="M298 122H308V132H298V122Z" stroke="#111A5A" stroke-width="4" mask="url(#path-5-inside-1)"/>
<path vector-effect="non-scaling-stroke" d="M334 122H344V132H334V122Z" stroke="#111A5A" stroke-width="4" mask="url(#path-5-inside-1)"/>
<path vector-effect="non-scaling-stroke" d="M370 122H380V132H370V122Z" stroke="#111A5A" stroke-width="4" mask="url(#path-5-inside-1)"/>
<path vector-effect="non-scaling-stroke" d="M406 122H416V132H406V122Z" stroke="#111A5A" stroke-width="4" mask="url(#path-5-inside-1)"/>
<path vector-effect="non-scaling-stroke" d="M424 158H434V168H424V158Z" stroke="#111A5A" stroke-width="4" mask="url(#path-5-inside-1)"/>
<path vector-effect="non-scaling-stroke" d="M406 158H416V168H406V158Z" stroke="#111A5A" stroke-width="4" mask="url(#path-5-inside-1)"/>
<path vector-effect="non-scaling-stroke" d="M280 140H290V150H280V140Z" stroke="#111A5A" stroke-width="4" mask="url(#path-5-inside-1)"/>
<path vector-effect="non-scaling-stroke" d="M316 140H326V150H316V140Z" stroke="#111A5A" stroke-width="4" mask="url(#path-5-inside-1)"/>
<path vector-effect="non-scaling-stroke" d="M352 140H362V150H352V140Z" stroke="#111A5A" stroke-width="4" mask="url(#path-5-inside-1)"/>
<path vector-effect="non-scaling-stroke" d="M388 140H398V150H388V140Z" stroke="#111A5A" stroke-width="4" mask="url(#path-5-inside-1)"/>
<path vector-effect="non-scaling-stroke" d="M298 140H308V150H298V140Z" stroke="#111A5A" stroke-width="4" mask="url(#path-5-inside-1)"/>
<path vector-effect="non-scaling-stroke" d="M334 140H344V150H334V140Z" stroke="#111A5A" stroke-width="4" mask="url(#path-5-inside-1)"/>
<path vector-effect="non-scaling-stroke" d="M370 140H380V150H370V140Z" stroke="#111A5A" stroke-width="4" mask="url(#path-5-inside-1)"/>
<path vector-effect="non-scaling-stroke" d="M535 253H600V263H535V253Z" stroke="#111A5A" stroke-width="4" mask="url(#path-5-inside-1)"/>
<path vector-effect="non-scaling-stroke" d="M593 271H616V281H593V271Z" stroke="#111A5A" stroke-width="4" mask="url(#path-5-inside-1)"/>
<path vector-effect="non-scaling-stroke" d="M566 307H616V317H566V307Z" stroke="#111A5A" stroke-width="4" mask="url(#path-5-inside-1)"/>
<path vector-effect="non-scaling-stroke" d="M535 325H579V335H535V325Z" stroke="#111A5A" stroke-width="4" mask="url(#path-5-inside-1)"/>
<path vector-effect="non-scaling-stroke" d="M545 289H571V299H545V289Z" stroke="#111A5A" stroke-width="4" mask="url(#path-5-inside-1)"/>
<path vector-effect="non-scaling-stroke" d="M546 343H587V353H546V343Z" stroke="#111A5A" stroke-width="4" mask="url(#path-5-inside-1)"/>
<path vector-effect="non-scaling-stroke" d="M546 379H579V389H546V379Z" stroke="#111A5A" stroke-width="4" mask="url(#path-5-inside-1)"/>
<path vector-effect="non-scaling-stroke" d="M587 379H597V389H587V379Z" stroke="#111A5A" stroke-width="4" mask="url(#path-5-inside-1)"/>
<path vector-effect="non-scaling-stroke" d="M36 148L36 124M73 151V137M19 205L19 191M174 139V125M202 188V166M119 124V165.212M119 165.212H63V188M119 165.212H175V188" stroke="#111A5A" stroke-width="2"/>
<path vector-effect="non-scaling-stroke" d="M354.5 113.5V99.1415C354.5 91.8837 360.384 86 367.642 86H387.75C393.963 86 399 80.9632 399 74.75C399 68.5368 393.963 63.5 387.75 63.5H309C301.544 63.5 295.5 57.4558 295.5 50C295.5 42.5442 301.544 36.5 309 36.5H361.352C368.061 36.5 373.5 31.0614 373.5 24.3525V1.5M475 1H711M238 273H474M544 447H538.5C527.454 447 519 438.046 519 427V237H659V405.5M44 370H2M188 283H1M238 432H78M78 432V380M78 432L78 473M238 360H198M190 237V330M276 201H274.059L265 207.5L274.059 213H276" stroke="#111A5A" stroke-width="2"/>
<path vector-effect="non-scaling-stroke" d="M519.627 536.535L506.899 523.807M526.58 529.534L524.036 520.104M512.534 543.58L503.104 541.036" stroke="#111A5A" stroke-width="2"/>
<path vector-effect="non-scaling-stroke" d="M665.807 645.899L678.535 658.627M658.854 652.9L661.398 662.331M672.9 638.854L682.331 641.398" stroke="#111A5A" stroke-width="2"/>
<path vector-effect="non-scaling-stroke" d="M288 316V292M282 337H258M301 370H277M341 299L317 299M400 313L376 313M431 297V273M425 355V331M456 376H432M432 443H408M324 432H300M262 456H238M253 406V382M367 455V431M309 473V449M280 439V415M452 431V407M465 321L441 321M332.5 353H312.5V333M329 375H311.5M312.5 417V397H332.5M379.5 397H399.5V417M383 375H400.5M399.5 333L399.5 353H379.5" stroke="#111A5A" stroke-width="2"/>
<path vector-effect="non-scaling-stroke" d="M560 580C560 575.582 563.582 572 568 572C572.418 572 576 575.582 576 580M608 580C608 575.582 611.582 572 616 572C620.418 572 624 575.582 624 580" stroke="#111A5A" stroke-width="2"/>
<path vector-effect="non-scaling-stroke" d="M588 326H625V334H588V326ZM407 141H433V149H407V141ZM433 200V210C433 217.18 427.18 223 420 223C412.82 223 407 217.18 407 210V200C407 192.82 412.82 187 420 187C427.18 187 433 192.82 433 200ZM520 205C520 208.866 516.866 212 513 212C509.134 212 506 208.866 506 205C506 201.134 509.134 198 513 198C516.866 198 520 201.134 520 205ZM264 255C264 258.866 260.866 262 257 262C253.134 262 250 258.866 250 255C250 251.134 253.134 248 257 248C260.866 248 264 251.134 264 255ZM559 34C559 37.866 555.866 41 552 41C548.134 41 545 37.866 545 34C545 30.134 548.134 27 552 27C555.866 27 559 30.134 559 34ZM197 282C197 285.866 193.866 289 190 289C186.134 289 183 285.866 183 282C183 278.134 186.134 275 190 275C193.866 275 197 278.134 197 282ZM93.2812 644.202L133.537 533.281L146.698 538.057L106.441 648.978L93.2812 644.202ZM395.892 605.33L411.481 614.33C414.829 616.263 415.976 620.544 414.043 623.892C412.11 627.24 407.829 628.388 404.481 626.455L388.892 617.455C385.544 615.522 384.397 611.24 386.33 607.892C388.263 604.544 392.544 603.397 395.892 605.33Z" fill="#EDBDC6" stroke="#111A5A" stroke-width="2"/>
<path vector-effect="non-scaling-stroke" d="M323 201H329C332.314 201 335 203.686 335 207C335 210.314 332.314 213 329 213H323V201ZM281 159H307V167H281V159ZM571 362H609V370H571V362ZM546 272H584V280H546V272ZM596 169C596 172.866 592.866 176 589 176C585.134 176 582 172.866 582 169C582 165.134 585.134 162 589 162C592.866 162 596 165.134 596 169ZM383 375C383 386.989 379.906 397.797 374.955 405.576C369.998 413.367 363.272 418 356 418C348.728 418 342.002 413.367 337.045 405.576C332.094 397.797 329 386.989 329 375C329 363.011 332.094 352.203 337.045 344.424C342.002 336.633 348.728 332 356 332C363.272 332 369.998 336.633 374.955 344.424C379.906 352.203 383 363.011 383 375ZM652 69C652 72.866 648.866 76 645 76C641.134 76 638 72.866 638 69C638 65.134 641.134 62 645 62C648.866 62 652 65.134 652 69ZM118.799 178.379L100.749 165.799L118.799 153.219L136.849 165.799L118.799 178.379ZM85 431C85 434.866 81.866 438 78 438C74.134 438 71 434.866 71 431C71 427.134 74.134 424 78 424C81.866 424 85 427.134 85 431ZM391 489C391 492.866 387.866 496 384 496C380.134 496 377 492.866 377 489C377 485.134 380.134 482 384 482C387.866 482 391 485.134 391 489Z" fill="#F3A787" stroke="#111A5A" stroke-width="2"/>
<path vector-effect="non-scaling-stroke" d="M67.0914 379.019V380.019H68.0914H77.0556H78.0556V379.019V370.071H85.1795H86.1795V369.071V361.085V360.085H85.1795H78.0556V329.981V328.981H77.0556H60.948H60.377L60.0868 329.473L43.1388 358.195L43 358.43V358.703V369.071V370.071H44H67.0914V379.019ZM105.722 375.972L105.727 375.977C109.452 379.355 114.356 381 120.336 381C126.359 381 131.267 379.357 134.949 375.972L134.949 375.972C138.723 372.499 140.525 367.33 140.525 360.665V348.335C140.525 341.848 138.719 336.761 134.96 333.248C131.28 329.719 126.367 328 120.336 328C114.346 328 109.437 329.721 105.714 333.245C101.953 336.758 100.147 341.847 100.147 348.335V360.665C100.147 367.33 101.948 372.499 105.722 375.972ZM127.288 368.482L127.288 368.482L127.279 368.492C125.9 370.107 123.664 371.014 120.336 371.014C117.103 371.014 114.856 370.143 113.402 368.568C111.933 366.979 111.111 364.499 111.111 360.945V347.915C111.111 344.63 111.951 342.219 113.501 340.543C115.093 338.872 117.326 337.986 120.336 337.986C123.252 337.986 125.447 338.849 127.043 340.486L127.052 340.496L127.061 340.504C128.672 342.075 129.56 344.484 129.56 347.915V360.945C129.56 364.347 128.755 366.81 127.288 368.482ZM178.912 379.019V380.019H179.912H188.876H189.876V379.019V370.071H197H198V369.071V361.085V360.085H197H189.876V329.981V328.981H188.876H172.769H172.197L171.907 329.473L154.959 358.195L154.821 358.43V358.703V369.071V370.071H155.821H178.912V379.019ZM425.198 608.064L425.183 608.055L425.167 608.047L412.179 600.873C412.716 597.639 413.234 594.326 413.234 591C413.234 587.942 412.716 584.644 412.179 581.416L425.167 574.243L425.183 574.234L425.198 574.225C426.988 573.152 428 571.066 428 569.031C428 568.351 427.761 567.39 427.416 566.33C427.058 565.232 426.546 563.91 425.919 562.456C424.663 559.547 422.927 556.062 420.99 552.705C419.057 549.355 416.904 546.098 414.811 543.664C413.765 542.449 412.71 541.41 411.68 540.667C410.668 539.936 409.573 539.414 408.47 539.414C407.448 539.414 406.353 539.737 405.551 540.474L392.668 547.864C387.671 543.555 382.167 540.517 376.175 538.272V523.359C376.175 520.608 374.137 518.14 371.599 517.751C366.617 516.584 361.632 516 356.645 516C351.356 516 346.358 516.587 341.361 517.761L341.338 517.766L341.315 517.773C338.879 518.468 337.115 520.58 337.115 523.359V538.261C330.858 540.509 325.336 543.549 320.332 547.864L307.449 540.474C306.647 539.737 305.552 539.414 304.53 539.414C303.489 539.414 302.444 539.933 301.482 540.634C300.497 541.352 299.469 542.357 298.439 543.537C296.375 545.898 294.205 549.07 292.235 552.367C290.262 555.669 288.469 559.129 287.166 562.083C286.515 563.56 285.98 564.923 285.607 566.085C285.242 567.219 285 568.252 285 569.031C285 571.066 286.012 573.152 287.802 574.225L287.817 574.234L287.833 574.243L300.824 581.418C300.312 584.668 300.055 587.706 300.055 591C300.055 594.291 300.312 597.582 300.825 600.871L287.833 608.047L287.817 608.055L287.802 608.064C286.038 609.121 285 611.191 285 612.969C285 613.678 285.235 614.665 285.582 615.758C285.939 616.885 286.452 618.231 287.079 619.706C288.335 622.657 290.072 626.171 292.009 629.546C293.943 632.915 296.095 636.181 298.189 638.62C299.234 639.837 300.289 640.878 301.319 641.621C302.332 642.353 303.427 642.875 304.53 642.875C305.552 642.875 306.647 642.552 307.449 641.815L320.352 634.414C325.328 638.468 330.837 641.755 337.115 644.027V658.93C337.115 661.709 338.879 663.821 341.315 664.516L341.365 664.531L341.416 664.54C346.373 665.413 351.356 666 356.355 666C361.021 666 366.32 665.71 371.35 664.528L371.363 664.525C373.995 663.868 376.175 661.823 376.175 658.93V644.016C382.187 641.746 387.678 638.463 392.648 634.414L405.551 641.815C406.353 642.552 407.448 642.875 408.47 642.875H408.495L408.52 642.874C409.543 642.823 410.572 642.282 411.53 641.563C412.51 640.826 413.535 639.811 414.564 638.623C416.625 636.246 418.794 633.075 420.765 629.778C422.738 626.476 424.531 623.015 425.835 620.041C426.486 618.555 427.021 617.177 427.395 615.994C427.761 614.835 428 613.779 428 612.969C428 611.191 426.962 609.121 425.198 608.064ZM67.0914 337.253V360.085H53.6336L67.0914 337.253ZM178.912 337.253V360.085H165.454L178.912 337.253ZM356.645 613.125C344.167 613.125 334.483 603.454 334.483 591C334.483 578.827 344.175 568.875 356.645 568.875C368.833 568.875 378.807 578.835 378.807 591C378.807 603.446 368.841 613.125 356.645 613.125Z" fill="#F1F387" stroke="#111A5A" stroke-width="2"/>
<path vector-effect="non-scaling-stroke" d="M322 590.5C322 571.446 337.446 556 356.5 556C364.905 556 372.607 559.005 378.592 564M387.134 608.644L375.876 602.144" stroke="#111A5A" stroke-width="2"/>
<path vector-effect="non-scaling-stroke" d="M388.892 617.455C385.544 615.522 384.397 611.24 386.33 607.892C388.263 604.544 392.544 603.397 395.892 605.33L411.481 614.33C414.829 616.263 415.976 620.544 414.043 623.892C412.11 627.24 407.829 628.388 404.481 626.455L388.892 617.455Z" fill="#EDBDC6" stroke="#111A5A" stroke-width="2"/>
<path vector-effect="non-scaling-stroke" d="M698.5 405.5H559.5V430C559.5 440.8 547.167 445.833 541 447H677.5C695.1 447 698.833 435.667 698.5 430V405.5Z" fill="#BD87F3" stroke="#111A5A" stroke-width="2"/>
<path vector-effect="non-scaling-stroke" d="M507 597.228V598.228H508H519.915C520.673 598.228 521.064 598.428 521.28 598.661C521.509 598.907 521.712 599.371 521.712 600.238V632.413C521.712 635.752 522.758 638.545 524.905 640.696C527.115 642.91 529.934 644 533.28 644H550.893H551.893V643V631.79V630.79H550.893H538.149C537.4 630.79 537.014 630.587 536.795 630.344C536.558 630.08 536.352 629.585 536.352 628.677V600.238C536.352 597.651 535.509 595.429 533.804 593.639C532.402 592.105 530.61 591.236 528.491 591C530.61 590.764 532.402 589.895 533.804 588.361C535.509 586.571 536.352 584.349 536.352 581.762V553.323C536.352 552.415 536.558 551.92 536.795 551.656C537.014 551.413 537.4 551.21 538.149 551.21H550.893H551.893V550.21V539V538H550.893H533.28C529.934 538 527.115 539.09 524.905 541.304C522.758 543.455 521.712 546.248 521.712 549.587V581.762C521.712 582.629 521.509 583.093 521.28 583.339C521.064 583.572 520.673 583.772 519.915 583.772H508H507V584.772V597.228ZM632.107 643V644H633.107H650.72C654.059 644 656.848 642.914 658.992 640.696C661.205 638.549 662.288 635.757 662.288 632.413V600.238C662.288 599.371 662.491 598.907 662.72 598.661C662.936 598.428 663.327 598.228 664.085 598.228H676H677V597.228V584.772V583.772H676H664.085C663.327 583.772 662.936 583.572 662.72 583.339C662.491 583.093 662.288 582.629 662.288 581.762V549.587C662.288 546.243 661.205 543.451 658.992 541.304C656.848 539.086 654.059 538 650.72 538H633.107H632.107V539V550.21V551.21H633.107H645.851C646.6 551.21 646.986 551.413 647.205 551.656C647.442 551.92 647.648 552.415 647.648 553.323V581.762C647.648 584.339 648.45 586.559 650.085 588.352L650.093 588.361L650.101 588.369C651.557 589.894 653.377 590.764 655.506 591C653.377 591.236 651.557 592.106 650.101 593.631L650.093 593.639L650.085 593.648C648.45 595.441 647.648 597.661 647.648 600.238V628.677C647.648 629.585 647.442 630.08 647.205 630.344C646.986 630.587 646.6 630.79 645.851 630.79H633.107H632.107V631.79V643Z" fill="#BD87F3" stroke="#111A5A" stroke-width="2"/>
<path vector-effect="non-scaling-stroke" d="M91.0091 85.3065L91.7515 85.6627L92.2435 85.0025C104.459 68.6119 123.99 58 146 58C182.669 58 212.458 87.458 212.993 124H28.0111C28.5427 100.161 48.0337 81 72 81C78.8102 81 85.2565 82.5465 91.0091 85.3065ZM58.9203 591.305L86.4975 618.882L76.598 628.782L38.4142 590.598L76.598 552.414L86.4975 562.314L58.9203 589.891L58.2132 590.598L58.9203 591.305ZM181.276 589.891L153.698 562.314L163.598 552.414L201.782 590.598L163.598 628.782L153.698 618.882L181.276 591.305L181.983 590.598L181.276 589.891ZM317 159H397V167H317V159ZM547 362H561V370H547V362ZM580 290H633V298H580V290ZM312 255C312 258.866 308.866 262 305 262C301.134 262 298 258.866 298 255C298 251.134 301.134 248 305 248C308.866 248 312 251.134 312 255ZM528 103C528 106.866 524.866 110 521 110C517.134 110 514 106.866 514 103C514 99.134 517.134 96 521 96C524.866 96 528 99.134 528 103ZM257 591C257 594.866 253.866 598 250 598C246.134 598 243 594.866 243 591C243 587.134 246.134 584 250 584C253.866 584 257 587.134 257 591Z" fill="#BD87F3" stroke="#111A5A" stroke-width="2"/>
<path vector-effect="non-scaling-stroke" d="M55 68.4737L74.7746 39V60.1228H91L62.0986 95L69.7042 68.4737H55Z" fill="#F1F387"/>
<path vector-effect="non-scaling-stroke" d="M189 44.4211L202.183 26V39.2018H213L193.732 61L198.803 44.4211H189Z" fill="#F1F387"/>
<path vector-effect="non-scaling-stroke" d="M55 68.4737L74.7746 39V60.1228H91L62.0986 95L69.7042 68.4737H55Z" stroke="#111A5A" stroke-width="2"/>
<path vector-effect="non-scaling-stroke" d="M189 44.4211L202.183 26V39.2018H213L193.732 61L198.803 44.4211H189Z" stroke="#111A5A" stroke-width="2"/>
<path vector-effect="non-scaling-stroke" d="M238 0L238 710M474 0L474 710M711 237L1.00001 237M711 473L1 473" stroke="#111A5A" stroke-width="2"/>
<line x1="3" y1="4.37113e-08" x2="2.99997" y2="710" stroke="#111A5A" stroke-width="2"/>
<line x1="709" y1="4.37113e-08" x2="709" y2="710" stroke="#111A5A" stroke-width="2"/>
<line x1="710" y1="2" x2="-8.74227e-08" y2="1.99994" stroke="#111A5A" stroke-width="2"/>
<line x1="710" y1="708" x2="-8.74227e-08" y2="708" stroke="#111A5A" stroke-width="2"/>
</svg>
