<svg width="710" height="710" viewBox="0 0 710 710" fill="none" xmlns="http://www.w3.org/2000/svg">
<g clip-path="url(#clip0)">
<path d="M697.5 405.5H558.5V430C558.5 440.8 546.167 445.833 540 447H676.5C694.1 447 697.833 435.667 697.5 430V405.5Z" fill="#BD87F3"/>
<rect x="237" y="237" width="236" height="236" stroke="#111A5A" stroke-width="2"/>
<rect x="473" y="1" width="236" height="236" stroke="#111A5A" stroke-width="2"/>
<rect x="237" y="1" width="236" height="236" stroke="#111A5A" stroke-width="2"/>
<rect x="473" y="473" width="236" height="236" stroke="#111A5A" stroke-width="2"/>
<rect x="1" y="237" width="236" height="236" stroke="#111A5A" stroke-width="2"/>
<rect x="237" y="473" width="236" height="236" stroke="#111A5A" stroke-width="2"/>
<rect x="1" y="473" width="236" height="236" stroke="#111A5A" stroke-width="2"/>
<rect x="473" y="237" width="236" height="236" stroke="#111A5A" stroke-width="2"/>
<rect x="1" y="1" width="236" height="236" stroke="#111A5A" stroke-width="2"/>
<rect x="270" y="113" width="172" height="62" fill="#F1F387" stroke="#111A5A" stroke-width="2"/>
<rect x="316" y="159" width="80" height="8" fill="#BD87F3" stroke="#111A5A" stroke-width="2"/>
<path d="M276.268 207.64L276.802 207L276.268 206.36L274.187 203.862L275.618 201H322V213H275.618L274.187 210.138L276.268 207.64Z" fill="#F1F387" stroke="#111A5A" stroke-width="2"/>
<path d="M322 201H328C331.314 201 334 203.686 334 207C334 210.314 331.314 213 328 213H322V201Z" fill="#F3A787" stroke="#111A5A" stroke-width="2"/>
<rect x="280" y="159" width="26" height="8" fill="#F3A787" stroke="#111A5A" stroke-width="2"/>
<rect x="535" y="254" width="63" height="8" fill="#F8EEEA" stroke="#111A5A" stroke-width="2"/>
<rect x="593" y="272" width="21" height="8" fill="#F8EEEA" stroke="#111A5A" stroke-width="2"/>
<rect x="535" y="308" width="21" height="8" fill="#F1F387" stroke="#111A5A" stroke-width="2"/>
<rect x="566" y="308" width="48" height="8" fill="#F8EEEA" stroke="#111A5A" stroke-width="2"/>
<rect x="535" y="326" width="42" height="8" fill="#F8EEEA" stroke="#111A5A" stroke-width="2"/>
<rect x="587" y="326" width="37" height="8" fill="#EDBDC6" stroke="#111A5A" stroke-width="2"/>
<rect x="545" y="290" width="24" height="8" fill="#F8EEEA" stroke="#111A5A" stroke-width="2"/>
<rect x="280" y="123" width="8" height="8" fill="#F8EEEA" stroke="#111A5A" stroke-width="2"/>
<rect x="316" y="123" width="8" height="8" fill="#F8EEEA" stroke="#111A5A" stroke-width="2"/>
<rect x="352" y="123" width="8" height="8" fill="#F8EEEA" stroke="#111A5A" stroke-width="2"/>
<rect x="388" y="123" width="8" height="8" fill="#F8EEEA" stroke="#111A5A" stroke-width="2"/>
<rect x="424" y="123" width="8" height="8" fill="#F8EEEA" stroke="#111A5A" stroke-width="2"/>
<rect x="298" y="123" width="8" height="8" fill="#F8EEEA" stroke="#111A5A" stroke-width="2"/>
<rect x="334" y="123" width="8" height="8" fill="#F8EEEA" stroke="#111A5A" stroke-width="2"/>
<rect x="370" y="123" width="8" height="8" fill="#F8EEEA" stroke="#111A5A" stroke-width="2"/>
<rect x="406" y="123" width="8" height="8" fill="#F8EEEA" stroke="#111A5A" stroke-width="2"/>
<rect x="424" y="159" width="8" height="8" fill="#F8EEEA" stroke="#111A5A" stroke-width="2"/>
<rect x="406" y="159" width="8" height="8" fill="#F8EEEA" stroke="#111A5A" stroke-width="2"/>
<rect x="280" y="141" width="8" height="8" fill="#F8EEEA" stroke="#111A5A" stroke-width="2"/>
<rect x="316" y="141" width="8" height="8" fill="#F8EEEA" stroke="#111A5A" stroke-width="2"/>
<rect x="352" y="141" width="8" height="8" fill="#F8EEEA" stroke="#111A5A" stroke-width="2"/>
<rect x="388" y="141" width="8" height="8" fill="#F8EEEA" stroke="#111A5A" stroke-width="2"/>
<rect x="298" y="141" width="8" height="8" fill="#F8EEEA" stroke="#111A5A" stroke-width="2"/>
<rect x="334" y="141" width="8" height="8" fill="#F8EEEA" stroke="#111A5A" stroke-width="2"/>
<rect x="370" y="141" width="8" height="8" fill="#F8EEEA" stroke="#111A5A" stroke-width="2"/>
<rect x="406" y="141" width="26" height="8" fill="#EDBDC6" stroke="#111A5A" stroke-width="2"/>
<rect x="406" y="187" width="26" height="36" rx="13" fill="#EDBDC6" stroke="#111A5A" stroke-width="2"/>
<rect x="546" y="344" width="39" height="8" fill="#F8EEEA" stroke="#111A5A" stroke-width="2"/>
<rect x="546" y="380" width="31" height="8" fill="#F8EEEA" stroke="#111A5A" stroke-width="2"/>
<rect x="587" y="380" width="8" height="8" fill="#F8EEEA" stroke="#111A5A" stroke-width="2"/>
<rect x="546" y="362" width="14" height="8" fill="#BD87F3" stroke="#111A5A" stroke-width="2"/>
<rect x="570" y="362" width="38" height="8" fill="#F3A787" stroke="#111A5A" stroke-width="2"/>
<rect x="579" y="290" width="53" height="8" fill="#BD87F3" stroke="#111A5A" stroke-width="2"/>
<rect x="545" y="272" width="38" height="8" fill="#F3A787" stroke="#111A5A" stroke-width="2"/>
<path d="M353.5 113.5V99.1415C353.5 91.8837 359.384 86 366.642 86H386.75C392.963 86 398 80.9632 398 74.75V74.75C398 68.5368 392.963 63.5 386.75 63.5H308C300.544 63.5 294.5 57.4558 294.5 50V50C294.5 42.5442 300.544 36.5 308 36.5H360.352C367.061 36.5 372.5 31.0614 372.5 24.3525V1.5" stroke="#111A5A" stroke-width="2"/>
<line x1="473" y1="68" x2="709" y2="68" stroke="#111A5A" stroke-width="2"/>
<line x1="474" x2="710" stroke="#111A5A" stroke-width="2"/>
<line x1="474" y1="34" x2="710" y2="34" stroke="#111A5A" stroke-width="2"/>
<line x1="473" y1="204" x2="709" y2="204" stroke="#111A5A" stroke-width="2"/>
<line x1="237" y1="273" x2="473" y2="273" stroke="#111A5A" stroke-width="2"/>
<line x1="287" y1="316" x2="287" y2="292" stroke="#111A5A" stroke-width="2"/>
<line x1="35" y1="148" x2="35" y2="124" stroke="#111A5A" stroke-width="2"/>
<line x1="72" y1="151" x2="72" y2="137" stroke="#111A5A" stroke-width="2"/>
<line x1="18" y1="205" x2="18" y2="191" stroke="#111A5A" stroke-width="2"/>
<line x1="173" y1="139" x2="173" y2="125" stroke="#111A5A" stroke-width="2"/>
<line x1="201" y1="188" x2="201" y2="166" stroke="#111A5A" stroke-width="2"/>
<line x1="281" y1="337" x2="257" y2="337" stroke="#111A5A" stroke-width="2"/>
<line x1="43" y1="370" x2="1" y2="370" stroke="#111A5A" stroke-width="2"/>
<line x1="187" y1="283" x2="8.74228e-08" y2="283" stroke="#111A5A" stroke-width="2"/>
<line x1="237" y1="432" x2="77" y2="432" stroke="#111A5A" stroke-width="2"/>
<line x1="237" y1="360" x2="197" y2="360" stroke="#111A5A" stroke-width="2"/>
<line x1="300" y1="370" x2="276" y2="370" stroke="#111A5A" stroke-width="2"/>
<line x1="340" y1="299" x2="316" y2="299" stroke="#111A5A" stroke-width="2"/>
<line x1="399" y1="313" x2="375" y2="313" stroke="#111A5A" stroke-width="2"/>
<line x1="430" y1="297" x2="430" y2="273" stroke="#111A5A" stroke-width="2"/>
<line x1="424" y1="355" x2="424" y2="331" stroke="#111A5A" stroke-width="2"/>
<line x1="455" y1="376" x2="431" y2="376" stroke="#111A5A" stroke-width="2"/>
<line x1="431" y1="443" x2="407" y2="443" stroke="#111A5A" stroke-width="2"/>
<line x1="323" y1="432" x2="299" y2="432" stroke="#111A5A" stroke-width="2"/>
<line x1="261" y1="456" x2="237" y2="456" stroke="#111A5A" stroke-width="2"/>
<line x1="252" y1="406" x2="252" y2="382" stroke="#111A5A" stroke-width="2"/>
<line x1="366" y1="455" x2="366" y2="431" stroke="#111A5A" stroke-width="2"/>
<line x1="308" y1="473" x2="308" y2="449" stroke="#111A5A" stroke-width="2"/>
<line x1="279" y1="439" x2="279" y2="415" stroke="#111A5A" stroke-width="2"/>
<line x1="451" y1="431" x2="451" y2="407" stroke="#111A5A" stroke-width="2"/>
<line x1="518.627" y1="536.535" x2="505.899" y2="523.807" stroke="#111A5A" stroke-width="2"/>
<line y1="-1" x2="9.76801" y2="-1" transform="matrix(-0.260439 -0.96549 -0.96549 0.260439 524.615 529.795)" stroke="#111A5A" stroke-width="2"/>
<line x1="511.534" y1="543.58" x2="502.104" y2="541.036" stroke="#111A5A" stroke-width="2"/>
<line x1="664.807" y1="645.899" x2="677.535" y2="658.627" stroke="#111A5A" stroke-width="2"/>
<line y1="-1" x2="9.76801" y2="-1" transform="matrix(0.260439 0.96549 0.96549 -0.260439 658.82 652.64)" stroke="#111A5A" stroke-width="2"/>
<line x1="671.9" y1="638.854" x2="681.331" y2="641.398" stroke="#111A5A" stroke-width="2"/>
<line x1="464" y1="321" x2="440" y2="321" stroke="#111A5A" stroke-width="2"/>
<line x1="473" y1="102" x2="709" y2="102" stroke="#111A5A" stroke-width="2"/>
<line x1="473" y1="136" x2="709" y2="136" stroke="#111A5A" stroke-width="2"/>
<line x1="473" y1="170" x2="709" y2="170" stroke="#111A5A" stroke-width="2"/>
<circle cx="588" cy="169" r="7" fill="#F3A787" stroke="#111A5A" stroke-width="2"/>
<circle cx="354.5" cy="328.5" r="11.5" fill="#F3A787" stroke="#111A5A" stroke-width="2"/>
<path d="M382 375C382 386.989 378.906 397.797 373.955 405.576C368.998 413.367 362.271 418 355 418C347.729 418 341.002 413.367 336.045 405.576C331.094 397.797 328 386.989 328 375C328 363.011 331.094 352.203 336.045 344.424C341.002 336.633 347.729 332 355 332C362.271 332 368.998 336.633 373.955 344.424C378.906 352.203 382 363.011 382 375Z" fill="#F3A787" stroke="#111A5A" stroke-width="2"/>
<circle cx="512" cy="205" r="7" fill="#EDBDC6" stroke="#111A5A" stroke-width="2"/>
<path d="M518 427C518 438.046 526.954 447 538 447C549.046 447 558 438.046 558 427V405.5H698V427" stroke="#111A5A" stroke-width="2"/>
<path d="M698 427C698 438.046 689.046 447 678 447H538" stroke="#111A5A" stroke-width="2"/>
<circle cx="256" cy="255" r="7" fill="#EDBDC6" stroke="#111A5A" stroke-width="2"/>
<circle cx="280" cy="255" r="7" fill="#F1F387" stroke="#111A5A" stroke-width="2"/>
<path d="M372 591C372 582.163 364.837 575 356 575" stroke="#111A5A" stroke-width="2"/>
<circle cx="62" cy="194" r="7" fill="#F1F387" stroke="#111A5A" stroke-width="2"/>
<circle cx="304" cy="255" r="7" fill="#BD87F3" stroke="#111A5A" stroke-width="2"/>
<circle cx="660" cy="136" r="7" fill="#F1F387" stroke="#111A5A" stroke-width="2"/>
<circle cx="520" cy="103" r="7" fill="#BD87F3" stroke="#111A5A" stroke-width="2"/>
<circle cx="644" cy="69" r="7" fill="#F3A787" stroke="#111A5A" stroke-width="2"/>
<circle cx="551" cy="34" r="7" fill="#EDBDC6" stroke="#111A5A" stroke-width="2"/>
<path d="M331.5 353H311.5V333" stroke="#111A5A" stroke-width="2"/>
<path d="M328 375H310.5" stroke="#111A5A" stroke-width="2"/>
<path d="M311.5 417L311.5 397L331.5 397" stroke="#111A5A" stroke-width="2"/>
<path d="M378.5 397L398.5 397L398.5 417" stroke="#111A5A" stroke-width="2"/>
<path d="M382 375L399.5 375" stroke="#111A5A" stroke-width="2"/>
<path d="M398.5 333L398.5 353L378.5 353" stroke="#111A5A" stroke-width="2"/>
<path d="M66.0914 379.019V380.019H67.0914H76.0556H77.0556V379.019V370.071H84.1795H85.1795V369.071V361.085V360.085H84.1795H77.0556V329.981V328.981H76.0556H59.948H59.377L59.0868 329.473L42.1388 358.195L42 358.43V358.703V369.071V370.071H43H66.0914V379.019ZM104.722 375.972L104.727 375.977C108.452 379.355 113.356 381 119.336 381C125.359 381 130.267 379.357 133.949 375.972L133.949 375.972C137.723 372.499 139.525 367.33 139.525 360.665V348.335C139.525 341.848 137.719 336.761 133.96 333.248C130.28 329.719 125.367 328 119.336 328C113.346 328 108.437 329.721 104.714 333.245C100.953 336.758 99.1465 341.847 99.1465 348.335V360.665C99.1465 367.33 100.948 372.499 104.722 375.972ZM126.288 368.482L126.288 368.482L126.279 368.492C124.9 370.107 122.664 371.014 119.336 371.014C116.103 371.014 113.856 370.143 112.402 368.568C110.933 366.979 110.111 364.499 110.111 360.945V347.915C110.111 344.63 110.951 342.219 112.501 340.543C114.093 338.872 116.326 337.986 119.336 337.986C122.252 337.986 124.447 338.849 126.043 340.486L126.052 340.496L126.061 340.504C127.672 342.075 128.56 344.484 128.56 347.915V360.945C128.56 364.347 127.755 366.81 126.288 368.482ZM177.912 379.019V380.019H178.912H187.876H188.876V379.019V370.071H196H197V369.071V361.085V360.085H196H188.876V329.981V328.981H187.876H171.769H171.197L170.907 329.473L153.959 358.195L153.821 358.43V358.703V369.071V370.071H154.821H177.912V379.019ZM66.0914 337.253V360.085H52.6336L66.0914 337.253ZM177.912 337.253V360.085H164.454L177.912 337.253Z" fill="#F1F387" stroke="#111A5A" stroke-width="2"/>
<path d="M506 597.228V598.228H507H518.915C519.673 598.228 520.064 598.428 520.28 598.661C520.509 598.907 520.712 599.371 520.712 600.238V632.413C520.712 635.752 521.758 638.545 523.905 640.696C526.115 642.91 528.934 644 532.28 644H549.893H550.893V643V631.79V630.79H549.893H537.149C536.4 630.79 536.014 630.587 535.795 630.344C535.558 630.08 535.352 629.585 535.352 628.677V600.238C535.352 597.651 534.509 595.429 532.804 593.639C531.402 592.105 529.61 591.236 527.491 591C529.61 590.764 531.402 589.895 532.804 588.361C534.509 586.571 535.352 584.349 535.352 581.762V553.323C535.352 552.415 535.558 551.92 535.795 551.656C536.014 551.413 536.4 551.21 537.149 551.21H549.893H550.893V550.21V539V538H549.893H532.28C528.934 538 526.115 539.09 523.905 541.304C521.758 543.455 520.712 546.248 520.712 549.587V581.762C520.712 582.629 520.509 583.093 520.28 583.339C520.064 583.572 519.673 583.772 518.915 583.772H507H506V584.772V597.228ZM631.107 643V644H632.107H649.72C653.059 644 655.848 642.914 657.992 640.696C660.205 638.549 661.288 635.757 661.288 632.413V600.238C661.288 599.371 661.491 598.907 661.72 598.661C661.936 598.428 662.327 598.228 663.085 598.228H675H676V597.228V584.772V583.772H675H663.085C662.327 583.772 661.936 583.572 661.72 583.339C661.491 583.093 661.288 582.629 661.288 581.762V549.587C661.288 546.243 660.205 543.451 657.992 541.304C655.848 539.086 653.059 538 649.72 538H632.107H631.107V539V550.21V551.21H632.107H644.851C645.6 551.21 645.986 551.413 646.205 551.656C646.442 551.92 646.648 552.415 646.648 553.323V581.762C646.648 584.339 647.45 586.559 649.085 588.352L649.093 588.361L649.101 588.369C650.557 589.894 652.377 590.764 654.506 591C652.377 591.236 650.557 592.106 649.101 593.631L649.093 593.639L649.085 593.648C647.45 595.441 646.648 597.661 646.648 600.238V628.677C646.648 629.585 646.442 630.08 646.205 630.344C645.986 630.587 645.6 630.79 644.851 630.79H632.107H631.107V631.79V643Z" fill="#BD87F3" stroke="#111A5A" stroke-width="2"/>
<path d="M613.979 598C613.455 610.239 603.367 620 591 620C578.633 620 568.545 610.239 568.021 598H613.979Z" fill="#F1F387" stroke="#111A5A" stroke-width="2"/>
<path d="M575 580C575 575.582 571.418 572 567 572C562.582 572 559 575.582 559 580" stroke="#111A5A" stroke-width="2"/>
<path d="M623 580C623 575.582 619.418 572 615 572C610.582 572 607 575.582 607 580" stroke="#111A5A" stroke-width="2"/>
<path d="M658 405.5V237H518V427" stroke="#111A5A" stroke-width="2"/>
<mask id="path-118-inside-1" fill="white">
<path fill-rule="evenodd" clip-rule="evenodd" d="M90.4417 84.4049C102.838 67.772 122.661 57 145 57C182.555 57 213 87.4446 213 125H116H77H26C26 100.147 46.1472 80 71 80C77.9631 80 84.5569 81.5815 90.4417 84.4049Z"/>
</mask>
<path fill-rule="evenodd" clip-rule="evenodd" d="M90.4417 84.4049C102.838 67.772 122.661 57 145 57C182.555 57 213 87.4446 213 125H116H77H26C26 100.147 46.1472 80 71 80C77.9631 80 84.5569 81.5815 90.4417 84.4049Z" fill="#BD87F3"/>
<path d="M90.4417 84.4049L89.5765 86.2081L91.0612 86.9205L92.0453 85.6001L90.4417 84.4049ZM213 125V127H215V125H213ZM26 125H24V127H26V125ZM145 55C122.003 55 101.595 66.0922 88.8381 83.2098L92.0453 85.6001C104.08 69.4518 123.319 59 145 59V55ZM215 125C215 86.3401 183.66 55 145 55V59C181.451 59 211 88.5492 211 125H215ZM116 127H213V123H116V127ZM77 127H116V123H77V127ZM26 127H77V123H26V127ZM71 78C45.0426 78 24 99.0426 24 125H28C28 101.252 47.2518 82 71 82V78ZM91.3068 82.6017C85.1578 79.6516 78.269 78 71 78V82C77.6573 82 83.956 83.5115 89.5765 86.2081L91.3068 82.6017Z" fill="#111A5A" mask="url(#path-118-inside-1)"/>
<path d="M118 124V165.212H62V188" stroke="#111A5A" stroke-width="2"/>
<circle r="7" transform="matrix(-1 0 0 1 174 194)" fill="#F1F387" stroke="#111A5A" stroke-width="2"/>
<path d="M118 124V165.212H174V188" stroke="#111A5A" stroke-width="2"/>
<path d="M117.799 178.379L99.7489 165.799L117.799 153.219L135.849 165.799L117.799 178.379Z" fill="#F3A787" stroke="#111A5A" stroke-width="2"/>
<line x1="77" y1="380" x2="77" y2="473" stroke="#111A5A" stroke-width="2"/>
<line x1="189" y1="237" x2="189" y2="330" stroke="#111A5A" stroke-width="2"/>
<circle cx="189" cy="282" r="7" fill="#EDBDC6" stroke="#111A5A" stroke-width="2"/>
<path d="M331.706 677.933C283.694 665.069 255.202 615.718 268.067 567.706C280.931 519.694 330.282 491.202 378.294 504.067" stroke="#111A5A" stroke-width="2"/>
<path d="M463 591C463 531.353 414.647 483 355 483C295.353 483 247 531.353 247 591" stroke="#111A5A" stroke-width="2"/>
<circle cx="77" cy="431" r="7" fill="#F3A787" stroke="#111A5A" stroke-width="2"/>
<path d="M328.306 694.354C385.387 709.649 444.059 675.775 459.354 618.694C474.649 561.613 440.775 502.941 383.694 487.646" stroke="#111A5A" stroke-width="2"/>
<path d="M57.9203 591.305L85.4975 618.882L75.598 628.782L37.4142 590.598L75.598 552.414L85.4975 562.314L57.9203 589.891L57.2132 590.598L57.9203 591.305Z" fill="#BD87F3" stroke="#111A5A" stroke-width="2"/>
<path d="M48.7797 506.6L40.0373 521.743L35.366 519.046L47.3054 498.366L67.9849 510.305L65.2879 514.977L50.1457 506.234L49.2797 505.734L48.7797 506.6Z" fill="#F1F387" stroke="#111A5A" stroke-width="2"/>
<path d="M153.78 673.6L145.037 688.743L140.366 686.046L152.305 665.366L172.985 677.305L170.288 681.977L155.146 673.234L154.28 672.734L153.78 673.6Z" fill="#F1F387" stroke="#111A5A" stroke-width="2"/>
<path d="M201.156 506.553L195.878 489.884L201.02 488.255L208.229 511.02L185.464 518.229L183.836 513.086L200.505 507.808L201.458 507.506L201.156 506.553Z" fill="#F1F387" stroke="#111A5A" stroke-width="2"/>
<path d="M180.276 589.891L152.698 562.314L162.598 552.414L200.782 590.598L162.598 628.782L152.698 618.882L180.276 591.305L180.983 590.598L180.276 589.891Z" fill="#BD87F3" stroke="#111A5A" stroke-width="2"/>
<rect x="132.537" y="533.281" width="14" height="118" transform="rotate(19.9473 132.537 533.281)" fill="#EDBDC6" stroke="#111A5A" stroke-width="2"/>
<path d="M54 68.4737L73.7746 39V60.1228H90L61.0986 95L68.7042 68.4737H54Z" fill="#F1F387" stroke="#111A5A" stroke-width="2"/>
<path d="M188 44.4211L201.183 26V39.2018H212L192.732 61L197.803 44.4211H188Z" fill="#F1F387" stroke="#111A5A" stroke-width="2"/>
<path d="M424.198 608.064L424.183 608.055L424.167 608.047L411.179 600.873C411.716 597.639 412.234 594.326 412.234 591C412.234 587.942 411.716 584.644 411.179 581.416L424.167 574.243L424.183 574.234L424.198 574.225C425.988 573.152 427 571.066 427 569.031C427 568.351 426.761 567.39 426.416 566.33C426.058 565.232 425.546 563.91 424.919 562.456C423.663 559.547 421.927 556.062 419.99 552.705C418.057 549.355 415.904 546.098 413.811 543.664C412.765 542.449 411.71 541.41 410.68 540.667C409.668 539.936 408.573 539.414 407.47 539.414C406.448 539.414 405.353 539.737 404.551 540.474L391.668 547.864C386.671 543.555 381.167 540.517 375.175 538.272V523.359C375.175 520.608 373.137 518.14 370.598 517.751C365.617 516.584 360.632 516 355.645 516C350.356 516 345.358 516.587 340.361 517.761L340.338 517.766L340.315 517.773C337.879 518.468 336.115 520.58 336.115 523.359V538.261C329.858 540.509 324.336 543.549 319.332 547.864L306.449 540.474C305.647 539.737 304.552 539.414 303.53 539.414C302.489 539.414 301.444 539.933 300.482 540.634C299.497 541.352 298.469 542.357 297.439 543.537C295.375 545.898 293.205 549.07 291.235 552.367C289.262 555.669 287.469 559.129 286.166 562.083C285.515 563.56 284.98 564.923 284.607 566.085C284.242 567.219 284 568.252 284 569.031C284 571.066 285.012 573.152 286.802 574.225L286.817 574.234L286.833 574.243L299.824 581.418C299.312 584.668 299.055 587.706 299.055 591C299.055 594.291 299.312 597.582 299.825 600.871L286.833 608.047L286.817 608.055L286.802 608.064C285.038 609.121 284 611.191 284 612.969C284 613.678 284.235 614.665 284.582 615.758C284.939 616.885 285.452 618.231 286.079 619.706C287.335 622.657 289.072 626.171 291.009 629.546C292.943 632.915 295.095 636.181 297.189 638.62C298.234 639.837 299.289 640.878 300.319 641.621C301.332 642.353 302.427 642.875 303.53 642.875C304.552 642.875 305.647 642.552 306.449 641.815L319.352 634.414C324.328 638.468 329.837 641.755 336.115 644.027V658.93C336.115 661.709 337.879 663.821 340.315 664.516L340.365 664.531L340.416 664.54C345.373 665.413 350.356 666 355.355 666C360.021 666 365.32 665.71 370.35 664.528L370.363 664.525C372.995 663.868 375.175 661.823 375.175 658.93V644.016C381.187 641.746 386.678 638.463 391.648 634.414L404.551 641.815C405.353 642.552 406.448 642.875 407.47 642.875H407.495L407.52 642.874C408.543 642.823 409.572 642.282 410.53 641.563C411.51 640.826 412.535 639.811 413.564 638.623C415.625 636.246 417.794 633.075 419.765 629.778C421.738 626.476 423.531 623.015 424.835 620.041C425.486 618.555 426.021 617.177 426.395 615.994C426.761 614.835 427 613.779 427 612.969C427 611.191 425.962 609.121 424.198 608.064ZM355.645 613.125C343.167 613.125 333.483 603.454 333.483 591C333.483 578.827 343.175 568.875 355.645 568.875C367.833 568.875 377.807 578.835 377.807 591C377.807 603.446 367.841 613.125 355.645 613.125Z" fill="#F1F387" stroke="#111A5A" stroke-width="2"/>
<path d="M321 590.5C321 571.446 336.446 556 355.5 556C363.905 556 371.607 559.005 377.592 564" stroke="#111A5A" stroke-width="2"/>
<line x1="386.134" y1="608.644" x2="374.876" y2="602.144" stroke="#111A5A" stroke-width="2"/>
<rect x="381.83" y="613.955" width="14" height="32" rx="7" transform="rotate(-60 381.83 613.955)" fill="#EDBDC6" stroke="#111A5A" stroke-width="2"/>
<circle cx="383" cy="489" r="7" fill="#F3A787" stroke="#111A5A" stroke-width="2"/>
<circle cx="249" cy="591" r="7" fill="#BD87F3" stroke="#111A5A" stroke-width="2"/>
<circle cx="329" cy="678" r="7" fill="#F1F387" stroke="#111A5A" stroke-width="2"/>
<path d="M275 201H273.059L264 207.5L273.059 213H275" stroke="#111A5A" stroke-width="2"/>
</g>
<defs>
<clipPath id="clip0">
<rect width="710" height="710" fill="white"/>
</clipPath>
</defs>
</svg>
