<svg width="710" height="710" viewBox="0 0 710 710" fill="none" xmlns="http://www.w3.org/2000/svg">
<path vector-effect="non-scaling-stroke" d="M237 547H174.75C183.75 516.5 198.5 503.5 212.75 503C224.15 502.6 233.667 515.333 237 521.75V547Z" fill="#F1F387"/>
<path vector-effect="non-scaling-stroke" d="M303 365C303 336.281 326.281 313 355 313C383.719 313 407 336.281 407 365V473H303V365Z" fill="#F8EEEA" stroke="#111A5A" stroke-width="2"/>
<path vector-effect="non-scaling-stroke" d="M322.175 365.325C322.175 347.196 336.871 332.5 355 332.5C373.129 332.5 387.825 347.196 387.825 365.325V373.5H322.175V365.325Z" fill="#F8EEEA" stroke="#111A5A" stroke-width="2"/>
<path vector-effect="non-scaling-stroke" d="M708 2H473L708 237V2Z" fill="#F1F387" stroke="#111A5A" stroke-width="2"/>
<rect vector-effect="non-scaling-stroke" x="473" y="387" width="59" height="86" stroke="#111A5A" stroke-width="2"/>
<rect vector-effect="non-scaling-stroke" x="532" y="336" width="59" height="137" fill="#EDBDC6" stroke="#111A5A" stroke-width="2"/>
<rect vector-effect="non-scaling-stroke" x="591" y="286" width="59" height="187" stroke="#111A5A" stroke-width="2"/>
<rect vector-effect="non-scaling-stroke" x="52" y="151" width="64" height="16" rx="8" stroke="#111A5A" stroke-width="2"/>
<rect vector-effect="non-scaling-stroke" x="103" y="111" width="99" height="16" rx="8" fill="#F1F387" stroke="#111A5A" stroke-width="2"/>
<rect vector-effect="non-scaling-stroke" x="100" y="191" width="82" height="16" rx="8" fill="#BD87F3" stroke="#111A5A" stroke-width="2"/>
<rect vector-effect="non-scaling-stroke" x="32" y="71" width="94" height="16" rx="8" stroke="#111A5A" stroke-width="2"/>
<rect vector-effect="non-scaling-stroke" x="77" y="31" width="105" height="16" rx="8" fill="#EDBDC6" stroke="#111A5A" stroke-width="2"/>
<path vector-effect="non-scaling-stroke" d="M650 236H708V473H650V236Z" stroke="#111A5A" stroke-width="2"/>
<line vector-effect="non-scaling-stroke" x1="72" y1="709" x2="72" y2="473" stroke="#111A5A" stroke-width="2"/>
<circle vector-effect="non-scaling-stroke" cx="389" cy="409" r="7" fill="#F3A787" stroke="#111A5A" stroke-width="2"/>
<circle vector-effect="non-scaling-stroke" cx="404" cy="282.5" r="16" fill="#F1F387" stroke="#111A5A" stroke-width="2"/>
<path vector-effect="non-scaling-stroke" d="M255.948 276.5C256.471 264.261 266.559 254.5 278.926 254.5C285.783 254.5 291.938 257.499 296.154 262.261L296.611 262.778L297.257 262.533C299.018 261.866 300.928 261.5 302.926 261.5C311.427 261.5 318.379 268.129 318.896 276.5H255.948Z" fill="#EDBDC6" stroke="#111A5A" stroke-width="2"/>
<path vector-effect="non-scaling-stroke" d="M404.718 292.061L405.299 292.22L405.71 291.78C409.908 287.298 415.877 284.5 422.5 284.5C431.16 284.5 438.704 289.286 442.628 296.362L443.003 297.038L443.752 296.846C444.629 296.62 445.55 296.5 446.5 296.5C452.238 296.5 456.95 300.893 457.455 306.5H384.531C385.047 298.129 391.999 291.5 400.5 291.5C401.961 291.5 403.375 291.696 404.718 292.061Z" fill="#BD87F3" stroke="#111A5A" stroke-width="2"/>
<line vector-effect="non-scaling-stroke" x1="473" y1="590" x2="709" y2="590" stroke="#111A5A" stroke-width="2"/>
<line vector-effect="non-scaling-stroke" x1="512.333" y1="611" x2="512.333" y2="571" stroke="#111A5A" stroke-width="2"/>
<line vector-effect="non-scaling-stroke" x1="551.667" y1="611" x2="551.667" y2="571" stroke="#111A5A" stroke-width="2"/>
<line vector-effect="non-scaling-stroke" x1="591" y1="611" x2="591" y2="571" stroke="#111A5A" stroke-width="2"/>
<line vector-effect="non-scaling-stroke" x1="630.334" y1="611" x2="630.334" y2="571" stroke="#111A5A" stroke-width="2"/>
<line vector-effect="non-scaling-stroke" x1="669.667" y1="611" x2="669.667" y2="571" stroke="#111A5A" stroke-width="2"/>
<circle vector-effect="non-scaling-stroke" cx="591" cy="591" r="7" fill="#F8EEEA" stroke="#111A5A" stroke-width="2"/>
<circle vector-effect="non-scaling-stroke" cx="512" cy="591" r="7" fill="#F8EEEA" stroke="#111A5A" stroke-width="2"/>
<circle vector-effect="non-scaling-stroke" cx="631" cy="591" r="7" fill="#F3A787" stroke="#111A5A" stroke-width="2"/>
<circle vector-effect="non-scaling-stroke" cx="670" cy="591" r="7" fill="#F8EEEA" stroke="#111A5A" stroke-width="2"/>
<circle vector-effect="non-scaling-stroke" cx="552" cy="591" r="7" fill="#BD87F3" stroke="#111A5A" stroke-width="2"/>
<path vector-effect="non-scaling-stroke" d="M580 504H524V544H542L551.971 553.971L561.941 544H580V504Z" fill="#F1F387" stroke="#111A5A" stroke-width="2"/>
<path vector-effect="non-scaling-stroke" d="M666.621 62.2573H610.621V102.257H642.496L656.562 112.228V102.257H666.621V62.2573Z" fill="#F8EEEA" stroke="#111A5A" stroke-width="2"/>
<path vector-effect="non-scaling-stroke" d="M526 136H582V176H550.125L536.059 185.971V176H526V136Z" fill="#EDBDC6" stroke="#111A5A" stroke-width="2"/>
<path vector-effect="non-scaling-stroke" d="M523 82H495V102H511.819L518.873 107V102H523V82Z" fill="#F8EEEA" stroke="#111A5A" stroke-width="2"/>
<path vector-effect="non-scaling-stroke" d="M605 187H637V211H618.344L610.627 216.471V211H605V187Z" fill="#F8EEEA" stroke="#111A5A" stroke-width="2"/>
<path vector-effect="non-scaling-stroke" d="M516 203H488V217H503.34L510.373 221.985V217H516V203Z" fill="#F8EEEA" stroke="#111A5A" stroke-width="2"/>
<path vector-effect="non-scaling-stroke" d="M588 19H564V37H577.383L585.132 42.4926V37H588V19Z" fill="#F1F387" stroke="#111A5A" stroke-width="2"/>
<path vector-effect="non-scaling-stroke" d="M694 16H670V28H680.769L690.097 34.6121V28H694V16Z" fill="#F1F387" stroke="#111A5A" stroke-width="2"/>
<path vector-effect="non-scaling-stroke" d="M687 135H647V157H670.402L681.287 164.716V157H687V135Z" fill="#F1F387" stroke="#111A5A" stroke-width="2"/>
<path vector-effect="non-scaling-stroke" d="M603.334 679.485L659.334 679.485L659.334 639.485L641.334 639.485L631.363 629.515L621.393 639.485L603.334 639.485L603.334 679.485Z" fill="#EDBDC6" stroke="#111A5A" stroke-width="2"/>
<path vector-effect="non-scaling-stroke" d="M617 655H645M615 663H647" stroke="#111A5A" stroke-width="2"/>
<path vector-effect="non-scaling-stroke" d="M35.5614 355L67.3812 323.18C95.8895 294.672 142.111 294.672 170.619 323.18L202.439 355L170.619 386.82C142.111 415.328 95.8895 415.328 67.3812 386.82L35.5614 355Z" fill="#EDBDC6" stroke="#111A5A" stroke-width="2"/>
<circle vector-effect="non-scaling-stroke" cx="119" cy="355" r="35" fill="#F8EEEA" stroke="#111A5A" stroke-width="2"/>
<path vector-effect="non-scaling-stroke" d="M123.124 347.024L130.886 343.114L126.976 350.876L126.454 351.912L127.556 352.276L135.809 355L127.556 357.724L126.454 358.088L126.976 359.124L130.886 366.886L123.124 362.976L122.088 362.454L121.724 363.556L119 371.809L116.276 363.556L115.912 362.454L114.876 362.976L107.114 366.886L111.024 359.124L111.546 358.088L110.444 357.724L102.191 355L110.444 352.276L111.546 351.912L111.024 350.876L107.114 343.114L114.876 347.024L115.912 347.546L116.276 346.444L119 338.191L121.724 346.444L122.088 347.546L123.124 347.024Z" fill="#BD87F3" stroke="#111A5A" stroke-width="2"/>
<line vector-effect="non-scaling-stroke" x1="1" y1="547" x2="237" y2="547" stroke="#111A5A" stroke-width="2" stroke-dasharray="8 8"/>
<path vector-effect="non-scaling-stroke" d="M2 649C11.7908 617.764 42.729 566.701 92.1555 612.332C141.582 657.963 163.585 581.646 173.183 550.232C188.796 499.126 218.923 489.025 237 522.215" stroke="#111A5A" stroke-width="2"/>
<circle vector-effect="non-scaling-stroke" cx="72" cy="600" r="11" fill="#BD87F3" stroke="#111A5A" stroke-width="2"/>
<path vector-effect="non-scaling-stroke" d="M119 286V254M75.2928 296.707L52.6654 274.08M164.707 296.707L187.334 274.08" stroke="#111A5A" stroke-width="2"/>
<path vector-effect="non-scaling-stroke" d="M119 424V456M162.707 413.293L185.335 435.92M73.2929 413.293L50.6655 435.92" stroke="#111A5A" stroke-width="2"/>
<path vector-effect="non-scaling-stroke" d="M540.667 521.995C544.441 526.523 554.524 532.862 564.667 521.995" stroke="#111A5A" stroke-width="2"/>
<circle vector-effect="non-scaling-stroke" cx="357" cy="119" r="16" fill="#BD87F3" stroke="#111A5A" stroke-width="2"/>
<path vector-effect="non-scaling-stroke" d="M356 41L356 25M356 214L356 198" stroke="#111A5A" stroke-width="2"/>
<path vector-effect="non-scaling-stroke" d="M278.5 120.5H262.5M451.5 120.5H435.5" stroke="#111A5A" stroke-width="2"/>
<path vector-effect="non-scaling-stroke" d="M288.517 81.116L274.661 73.116M438.339 167.616L424.483 159.616" stroke="#111A5A" stroke-width="2"/>
<path vector-effect="non-scaling-stroke" d="M318.616 187.983L310.616 201.839M405.116 38.1606L397.116 52.017" stroke="#111A5A" stroke-width="2"/>
<path vector-effect="non-scaling-stroke" d="M316.884 52.0171L308.884 38.1606M403.384 201.839L395.384 187.983" stroke="#111A5A" stroke-width="2"/>
<path vector-effect="non-scaling-stroke" d="M289.517 159.616L275.66 167.616M439.339 73.116L425.483 81.116" stroke="#111A5A" stroke-width="2"/>
<path vector-effect="non-scaling-stroke" d="M357 61V119L396 158" stroke="#111A5A" stroke-width="2"/>
<path vector-effect="non-scaling-stroke" d="M399.544 161.171L381.662 156.242L394.411 144.891L399.544 161.171Z" fill="#EDBDC6" stroke="#111A5A" stroke-width="2"/>
<rect vector-effect="non-scaling-stroke" x="287.5" y="521.5" width="86" height="30" fill="#F8EEEA" stroke="#111A5A" stroke-width="2" stroke-dasharray="8 8"/>
<rect vector-effect="non-scaling-stroke" x="307.5" y="577.5" width="86" height="30" fill="#F3A787" stroke="#111A5A" stroke-width="2"/>
<rect vector-effect="non-scaling-stroke" x="287.5" y="633.5" width="86" height="30" fill="#F8EEEA" stroke="#111A5A" stroke-width="2"/>
<path vector-effect="non-scaling-stroke" d="M403.5 591H425V535H385" stroke="#111A5A" stroke-width="2"/>
<path vector-effect="non-scaling-stroke" d="M393.485 526.515L385 535L393.485 543.485" stroke="#111A5A" stroke-width="2"/>
<circle vector-effect="non-scaling-stroke" cx="405" cy="591" r="4" fill="#BD87F3" stroke="#111A5A" stroke-width="2"/>
<path vector-effect="non-scaling-stroke" d="M1.99997 708L2 1.99994L708 2V708H1.99997Z" stroke="#111A5A" stroke-width="2"/>
<line vector-effect="non-scaling-stroke" x1="237" y1="3" x2="237" y2="708" stroke="#111A5A" stroke-width="2"/>
<line vector-effect="non-scaling-stroke" x1="707" y1="236" x2="2" y2="236" stroke="#111A5A" stroke-width="2"/>
<line vector-effect="non-scaling-stroke" x1="707" y1="473" x2="2" y2="473" stroke="#111A5A" stroke-width="2"/>
<line vector-effect="non-scaling-stroke" x1="473" y1="3" x2="473" y2="708" stroke="#111A5A" stroke-width="2"/>
</svg>
