<svg width="710" height="710" viewBox="0 0 710 710" fill="none" xmlns="http://www.w3.org/2000/svg">
<g clip-path="url(#clip0)">
<path vector-effect="non-scaling-stroke" d="M76.9727 353.549L76.2405 355H77.8654H119V473H2V355H42.1346H43.7595L43.0273 353.549C41.7308 350.981 41 348.077 41 345C41 334.507 49.5066 326 60 326C70.4934 326 79 334.507 79 345C79 348.077 78.2692 350.981 76.9727 353.549Z" stroke="#111A5A" stroke-width="2"/>
<path vector-effect="non-scaling-stroke" d="M119 236L119 277.135C121.705 275.769 124.763 275 128 275C139.046 275 148 283.954 148 295C148 306.046 139.046 315 128 315C124.763 315 121.705 314.231 119 312.865L119 355" stroke="#111A5A" stroke-width="2"/>
<rect vector-effect="non-scaling-stroke" x="65" y="185" width="110" height="16" fill="#EDBDC6" stroke="#111A5A" stroke-width="2"/>
<rect vector-effect="non-scaling-stroke" x="54" y="201" width="132" height="35" fill="#EDBDC6" stroke="#111A5A" stroke-width="2"/>
<path vector-effect="non-scaling-stroke" d="M159.021 355C157.725 357.729 157 360.781 157 364C157 375.598 166.402 385 178 385C189.598 385 199 375.598 199 364C199 360.781 198.275 357.729 196.979 355H237V473H119V432.336V430.808L117.6 431.419C115.274 432.436 112.704 433 110 433C99.5066 433 91 424.493 91 414C91 403.507 99.5066 395 110 395C112.704 395 115.274 395.564 117.6 396.581L119 397.192V395.664V355H159.021Z" fill="#F3A787" stroke="#111A5A" stroke-width="2"/>
<path vector-effect="non-scaling-stroke" d="M372.59 137.249L372 137.514V138.162L372 171H338L338 138.162V137.514L337.41 137.249C322.43 130.525 312 115.48 312 98C312 74.2518 331.252 55 355 55C378.748 55 398 74.2518 398 98C398 115.48 387.57 130.525 372.59 137.249Z" fill="#F1F387" stroke="#111A5A" stroke-width="2"/>
<circle vector-effect="non-scaling-stroke" cx="355" cy="98" r="18" fill="#F3A787" stroke="#111A5A" stroke-width="2"/>
<path vector-effect="non-scaling-stroke" d="M365 295C365 301.075 360.075 306 354 306C347.925 306 343 301.075 343 295C343 288.925 347.925 284 354 284C360.075 284 365 288.925 365 295ZM365 415C365 421.075 360.075 426 354 426C347.925 426 343 421.075 343 415C343 408.925 347.925 404 354 404C360.075 404 365 408.925 365 415Z" fill="#F3A787" stroke="#111A5A" stroke-width="2"/>
<path vector-effect="non-scaling-stroke" d="M325 295C325 301.075 320.075 306 314 306C307.925 306 303 301.075 303 295C303 288.925 307.925 284 314 284C320.075 284 325 288.925 325 295ZM405 415C405 421.075 400.075 426 394 426C387.925 426 383 421.075 383 415C383 408.925 387.925 404 394 404C400.075 404 405 408.925 405 415Z" fill="#BD87F3" stroke="#111A5A" stroke-width="2"/>
<path vector-effect="non-scaling-stroke" d="M456 355C456 361.075 451.075 366 445 366C438.925 366 434 361.075 434 355C434 348.925 438.925 344 445 344C451.075 344 456 348.925 456 355ZM276 355C276 361.075 271.075 366 265 366C258.925 366 254 361.075 254 355C254 348.925 258.925 344 265 344C271.075 344 276 348.925 276 355ZM47 501C47 507.075 42.0751 512 36 512C29.9249 512 25 507.075 25 501C25 494.925 29.9249 490 36 490C42.0751 490 47 494.925 47 501Z" fill="#F1F387" stroke="#111A5A" stroke-width="2"/>
<path vector-effect="non-scaling-stroke" d="M687 409C687 423.912 674.912 436 660 436C645.088 436 633 423.912 633 409C633 394.088 645.088 382 660 382C674.912 382 687 394.088 687 409ZM654.22 558.5C674.378 593.415 662.415 638.061 627.5 658.22C592.585 678.378 547.939 666.415 527.78 631.5C507.622 596.585 519.585 551.939 554.5 531.78C589.415 511.622 634.061 523.585 654.22 558.5Z" fill="#EDBDC6" stroke="#111A5A" stroke-width="2"/>
<line vector-effect="non-scaling-stroke" x1="500.325" y1="394.74" x2="674.192" y2="441.328" stroke="#111A5A" stroke-width="2"/>
<path vector-effect="non-scaling-stroke" d="M343 171H368V183H343V171ZM605.157 47.8995L589.414 32.1569L605.157 16.4142L620.9 32.1569L605.157 47.8995Z" fill="#EDBDC6" stroke="#111A5A" stroke-width="2"/>
<rect vector-effect="non-scaling-stroke" x="498" y="166" width="22.2635" height="22.2635" fill="#F3A787" stroke="#111A5A" stroke-width="2"/>
<line vector-effect="non-scaling-stroke" x1="118" y1="622" x2="118" y2="521" stroke="#111A5A" stroke-width="2"/>
<path vector-effect="non-scaling-stroke" d="M270 624L270 597M444 686V673M432 529V496" stroke="#111A5A" stroke-width="2"/>
<path vector-effect="non-scaling-stroke" d="M627.5 658.22L554.5 531.78M604.715 666.756L535.715 547.244M576.931 666.631L521.931 571.369M660.435 617.265L606.435 523.735M647.151 642.256L578.151 522.744" stroke="#111A5A" stroke-width="2"/>
<line vector-effect="non-scaling-stroke" x1="118.293" y1="580.154" x2="143.749" y2="554.698" stroke="#111A5A" stroke-width="2"/>
<line vector-effect="non-scaling-stroke" x1="118.335" y1="623.335" x2="92.8787" y2="597.879" stroke="#111A5A" stroke-width="2"/>
<path vector-effect="non-scaling-stroke" d="M660 396L660 412.5L671.5 419.5" stroke="#111A5A" stroke-width="2"/>
<path vector-effect="non-scaling-stroke" d="M509 77L567.75 131V185L609.6 205V131L667 77M578 237V205M588 227V194M598 227V205" stroke="#111A5A" stroke-width="2"/>
<path vector-effect="non-scaling-stroke" d="M286 316H424V394H286V316ZM405 295C405 301.075 400.075 306 394 306C387.925 306 383 301.075 383 295C383 288.925 387.925 284 394 284C400.075 284 405 288.925 405 295ZM325 415C325 421.075 320.075 426 314 426C307.925 426 303 421.075 303 415C303 408.925 307.925 404 314 404C320.075 404 325 408.925 325 415ZM154.755 555.455C150.343 558.239 144.644 558.671 140.447 558.258C139.305 547.85 142.667 542.354 147.108 539.562C151.519 536.788 157.239 536.522 161.452 537.209C162.008 542.143 161.477 545.934 160.292 548.836C159.054 551.869 157.077 553.99 154.755 555.455ZM124.705 517.371C123.775 521.689 120.795 525.38 118.149 527.696C111.548 522.08 110.336 516.724 111.286 512.347C112.223 508.032 115.311 504.427 118.119 502.268C121.239 504.906 123.095 507.506 124.078 509.963C125.119 512.564 125.203 515.061 124.705 517.371ZM95.7183 585.8C99.2528 591.402 99.757 598.638 99.2103 603.889C86.1103 605.375 79.1425 601.17 75.6021 595.539C72.0811 589.939 71.7864 582.679 72.6801 577.405C78.9164 576.678 83.7176 577.336 87.3975 578.838C91.2081 580.395 93.8769 582.881 95.7183 585.8ZM342.194 673L349.918 659H363.082L370.806 673H342.194Z" fill="#EDBDC6" stroke="#111A5A" stroke-width="2"/>
<circle vector-effect="non-scaling-stroke" cx="355.5" cy="568" r="13" fill="#BD87F3" stroke="#111A5A" stroke-width="2"/>
<path vector-effect="non-scaling-stroke" d="M376 659C398.66 588.263 378.542 530.298 355.64 519C332.729 530.298 311.355 587.084 335 659H376ZM376 659L409.5 670.5V658.5L382.5 632.5M329.5 640H380.5M328 632.5L301 658.5V670.5L334.5 659" stroke="#111A5A" stroke-width="2"/>
<path vector-effect="non-scaling-stroke" d="M37.7822 602.221C23.7822 593.221 12.7822 556.421 44.7822 541.221C84.7822 522.221 141.782 632.221 188.782 602.221C212.782 586.902 201.782 554.221 179.782 566.221" stroke="#111A5A" stroke-width="2" stroke-dasharray="8 8"/>
<path vector-effect="non-scaling-stroke" d="M285.244 505.695L285.986 506.051L286.478 505.391C290.275 500.296 296.343 497 303.182 497C314.344 497 323.455 505.785 323.976 516.818H266.037C266.548 509.863 272.353 504.38 279.439 504.38C281.52 504.38 283.488 504.852 285.244 505.695ZM422.082 601.106L422.574 601.766L423.316 601.41C426.3 599.979 429.643 599.176 433.176 599.176C445.446 599.176 455.455 608.859 455.978 621H359.014C359.543 602.133 375.004 587 394 587C405.497 587 415.7 592.543 422.082 601.106ZM555 374C555 388.912 542.912 401 528 401C513.088 401 501 388.912 501 374C501 359.088 513.088 347 528 347C542.912 347 555 359.088 555 374ZM689 141C689 147.627 683.627 153 677 153C670.373 153 665 147.627 665 141C665 134.373 670.373 129 677 129C683.627 129 689 134.373 689 141ZM668 75C668 75.9166 667.587 76.8993 666.619 77.9502C665.646 79.0066 664.163 80.0736 662.17 81.1212C658.184 83.2152 652.351 85.1313 645.059 86.7517C630.491 89.989 610.317 92 588 92C565.683 92 545.509 89.989 530.941 86.7517C523.649 85.1313 517.816 83.2152 513.83 81.1212C511.837 80.0736 510.354 79.0066 509.381 77.9502C508.413 76.8993 508 75.9166 508 75C508 74.0834 508.413 73.1007 509.381 72.0498C510.354 70.9934 511.837 69.9264 513.83 68.8788C517.816 66.7848 523.649 64.8687 530.941 63.2483C545.509 60.011 565.683 58 588 58C610.317 58 630.491 60.011 645.059 63.2483C652.351 64.8687 658.184 66.7848 662.17 68.8788C664.163 69.9264 665.646 70.9934 666.619 72.0498C667.587 73.1007 668 74.0834 668 75ZM686.255 559.265L594.934 599.066L634.735 507.745L686.255 559.265Z" fill="#F1F387" stroke="#111A5A" stroke-width="2"/>
<path vector-effect="non-scaling-stroke" d="M528 364L528 356M528 364H535M528 364H522V373.804H534V384H528M528 392L528 384M528 384H521" stroke="#111A5A" stroke-width="2"/>
<path vector-effect="non-scaling-stroke" d="M567 262H678V341.247H614.819L586.938 361V341.247H567V262Z" fill="#F3A787" stroke="#111A5A" stroke-width="2"/>
<path vector-effect="non-scaling-stroke" d="M553.548 473.233L587 420.858L620.452 473.233H553.548ZM531.452 75.6122L545.985 52.8578L560.518 75.6122H531.452Z" fill="#BD87F3" stroke="#111A5A" stroke-width="2"/>
<path vector-effect="non-scaling-stroke" d="M353 90L349 106M360.3 90L356.3 106M347 95.7H363M347 101H363" stroke="#111A5A" stroke-width="2" stroke-miterlimit="10"/>
<path vector-effect="non-scaling-stroke" d="M49 622H189L149 710H89L49 622Z" fill="#BD87F3"/>
<path vector-effect="non-scaling-stroke" d="M75.99 116.57C80.7917 147.512 77.9907 175.413 75.99 185H165.021C125.007 156.304 125.007 119.545 125.007 119.545C125.007 119.545 162.353 133.43 168.022 136.405C176.024 124.504 166.021 112.934 160.019 108.636C162.42 92.7686 153.683 86.157 149.015 84.8347L151.016 65L136.011 71.9421C119.205 62.4215 104.333 69.2975 98.998 73.9256C84.6597 70.9504 71.1884 85.6281 75.99 116.57Z" fill="#BD87F3"/>
<path vector-effect="non-scaling-stroke" d="M49 622H189L149 710H89L49 622Z" stroke="#111A5A" stroke-width="2"/>
<path vector-effect="non-scaling-stroke" d="M75.99 116.57C80.7917 147.512 77.9907 175.413 75.99 185H165.021C125.007 156.304 125.007 119.545 125.007 119.545C125.007 119.545 162.353 133.43 168.022 136.405C176.024 124.504 166.021 112.934 160.019 108.636C162.42 92.7686 153.683 86.157 149.015 84.8347L151.016 65L136.011 71.9421C119.205 62.4215 104.333 69.2975 98.998 73.9256C84.6597 70.9504 71.1884 85.6281 75.99 116.57Z" stroke="#111A5A" stroke-width="2"/>
<path vector-effect="non-scaling-stroke" d="M355 48V30M306 94H288M423 94H405M321.645 61.0589L308.917 48.3309M403.669 143.083L390.941 130.355M319.059 131.355L306.331 144.083M401.083 49.3309L388.355 62.0589M355 170V117M355.5 183V184.75C355.5 199.524 367.476 211.5 382.25 211.5C397.024 211.5 409 199.524 409 184.75V168.5C409 159.111 416.611 151.5 426 151.5C435.389 151.5 443 159.111 443 168.5V236.5M98.5 82.5C92.1667 84.3333 80.9 93 86.5 113" stroke="#111A5A" stroke-width="2"/>
<path vector-effect="non-scaling-stroke" d="M708 708H1.99997L2 1.99994L708 2V708Z" stroke="#111A5A" stroke-width="2"/>
<line vector-effect="non-scaling-stroke" x1="237" y1="3" x2="237" y2="708" stroke="#111A5A" stroke-width="2"/>
<line vector-effect="non-scaling-stroke" x1="707" y1="236" x2="2" y2="236" stroke="#111A5A" stroke-width="2"/>
<line vector-effect="non-scaling-stroke" x1="707" y1="473" x2="2" y2="473" stroke="#111A5A" stroke-width="2"/>
<line vector-effect="non-scaling-stroke" x1="473" y1="3" x2="473" y2="708" stroke="#111A5A" stroke-width="2"/>
<path vector-effect="non-scaling-stroke" d="M65 144H34M31 102H14M40 196H23" stroke="#111A5A" stroke-width="2"/>
<path vector-effect="non-scaling-stroke" d="M185.768 21.2291C185.994 21.3773 186.173 21.5879 186.282 21.8351L190.711 32.4638L190.711 32.4638L190.715 32.4745C191.065 33.2872 191.713 33.9349 192.526 34.2845L192.526 34.2846L192.536 34.289L203.165 38.7177C203.412 38.827 203.623 39.0057 203.771 39.2319C203.92 39.4599 204 39.7268 204 40C204 40.2732 203.92 40.5401 203.771 40.7681C203.623 40.9943 203.412 41.173 203.165 41.2823L192.536 45.711L192.536 45.7109L192.526 45.7155C191.713 46.0651 191.065 46.7128 190.715 47.5255L190.715 47.5255L190.711 47.5362L186.282 58.1649C186.173 58.4121 185.994 58.6227 185.768 58.7709C185.54 58.9204 185.273 59 185 59C184.727 59 184.46 58.9204 184.232 58.7709C184.006 58.6227 183.827 58.4121 183.718 58.1649L179.289 47.5362L179.289 47.5362L179.285 47.5255C178.935 46.7128 178.287 46.0651 177.474 45.7155L177.474 45.7154L177.464 45.711L166.835 41.2823C166.588 41.173 166.377 40.9943 166.229 40.7681C166.08 40.5401 166 40.2732 166 40C166 39.7268 166.08 39.4599 166.229 39.2319C166.377 39.0057 166.588 38.827 166.835 38.7177L177.464 34.289L177.464 34.2891L177.474 34.2845C178.287 33.9349 178.935 33.2872 179.285 32.4745L178.366 32.0792L179.289 32.4638L183.718 21.8351C183.827 21.5879 184.006 21.3773 184.232 21.2291C184.46 21.0796 184.727 21 185 21C185.273 21 185.54 21.0796 185.768 21.2291Z" stroke="#111A5A" stroke-width="2"/>
<path vector-effect="non-scaling-stroke" d="M645.979 301C645.455 313.239 635.367 323 623 323C610.633 323 600.545 313.239 600.021 301H645.979Z" fill="#F8EEEA" stroke="#111A5A" stroke-width="2"/>
<path vector-effect="non-scaling-stroke" d="M591 286C591 281.582 594.582 278 599 278C603.418 278 607 281.582 607 286M639 286C639 281.582 642.582 278 647 278C651.418 278 655 281.582 655 286" stroke="#111A5A" stroke-width="2"/>
</g>
<defs>
<clipPath id="clip0">
<rect vector-effect="non-scaling-stroke" width="710" height="710" fill="white"/>
</clipPath>
</defs>
</svg>
